<svg width="82" height="58" viewBox="0 0 82 58" fill="none" xmlns="http://www.w3.org/2000/svg">
<path d="M81.2074 16.3153L38.8438 0.910311C38.2186 0.683408 37.5287 1.00563 37.3014 1.63001C37.0743 2.25488 37.3965 2.94521 38.0211 3.17243L39.7963 3.818V5.97277H38.4323C37.7675 5.97277 37.2288 6.51146 37.2288 7.17628C37.2288 7.8411 37.7675 8.37979 38.4323 8.37979H39.7963V9.82401H38.4323C37.7675 9.82401 37.2288 10.3627 37.2288 11.0275C37.2288 11.6923 37.7675 12.231 38.4323 12.231H39.7963V13.6753H38.4323C37.7675 13.6753 37.2288 14.2139 37.2288 14.8788C37.2288 15.5436 37.7675 16.0823 38.4323 16.0823H39.7963V19.1363L0.834272 31.706C0.201706 31.9099 -0.145548 32.5882 0.0584075 33.2208C0.222727 33.7306 0.695307 34.0551 1.20351 34.0551C1.32595 34.0551 1.45047 34.0363 1.57339 33.9967L3.85156 33.2617V55.9587C3.85156 56.6235 4.39025 57.1622 5.05507 57.1622H76.9449C77.6097 57.1622 78.1484 56.6235 78.1484 55.9587V17.7643L80.3849 18.5776C80.5208 18.627 80.6596 18.6503 80.7962 18.6503C81.2878 18.6503 81.7495 18.3465 81.9275 17.8579C82.1544 17.233 81.8321 16.5425 81.2074 16.3153ZM10.1098 52.1076C10.1098 50.6476 11.2976 49.4599 12.7576 49.4599C14.2175 49.4599 15.4053 50.6476 15.4053 52.1076C15.4053 53.5675 14.2175 54.7553 12.7576 54.7553C11.2976 54.7553 10.1098 53.5675 10.1098 52.1076ZM20.3798 54.7553V41.7574H25.6753V54.7553H20.3798ZM30.6498 52.1076C30.6498 50.6476 31.8376 49.4599 33.2975 49.4599C34.7575 49.4599 35.9452 50.6476 35.9452 52.1076C35.9452 53.5675 34.7575 54.7553 33.2975 54.7553C31.8376 54.7553 30.6498 53.5675 30.6498 52.1076ZM75.7414 54.7553H42.2035V36.1583C42.2035 35.4935 41.6648 34.9548 41 34.9548C40.3352 34.9548 39.7965 35.4935 39.7965 36.1583V54.7553H37.601C38.0767 53.9847 38.3521 53.0778 38.3521 52.1076C38.3521 49.3204 36.0845 47.0528 33.2974 47.0528C30.5102 47.0528 28.2426 49.3204 28.2426 52.1076C28.2426 53.0778 28.518 53.9847 28.9938 54.7553H28.0821V40.5539C28.0821 39.889 27.5434 39.3504 26.8786 39.3504H19.1761C18.5113 39.3504 17.9726 39.889 17.9726 40.5539V54.7553H17.061C17.5368 53.9847 17.8122 53.0778 17.8122 52.1076C17.8122 49.3204 15.5446 47.0528 12.7574 47.0528C9.97022 47.0528 7.70264 49.3204 7.70264 52.1076C7.70264 53.0778 7.978 53.9847 8.45379 54.7553H6.25859V32.4854L39.7965 21.6667V30.3816C39.7965 31.0464 40.3352 31.5851 41 31.5851C41.6648 31.5851 42.2035 31.0464 42.2035 30.3816V5.03306L75.7414 17.0107V54.7553Z" fill="url(#paint0_linear)"/>
<path d="M46.1349 26.3524H71.8099C72.4747 26.3524 73.0134 25.8137 73.0134 25.1489V18.7302C73.0134 18.0654 72.4747 17.5267 71.8099 17.5267H46.1349C45.4701 17.5267 44.9314 18.0654 44.9314 18.7302V25.1489C44.9314 25.8136 45.4701 26.3524 46.1349 26.3524ZM47.3384 19.9337H70.6064V23.9454H47.3384V19.9337Z" fill="url(#paint1_linear)"/>
<path d="M46.1349 52.0274H51.2699C51.9347 52.0274 52.4734 51.4887 52.4734 50.8239V32.8514C52.4734 32.1866 51.9347 31.6479 51.2699 31.6479H46.1349C45.4701 31.6479 44.9314 32.1866 44.9314 32.8514V50.8239C44.9314 51.4885 45.4701 52.0274 46.1349 52.0274ZM47.3384 34.0549H50.0664V49.6204H47.3384V34.0549Z" fill="url(#paint2_linear)"/>
<path d="M61.5402 31.6479H56.4052C55.7404 31.6479 55.2017 32.1866 55.2017 32.8514V50.8239C55.2017 51.4887 55.7404 52.0274 56.4052 52.0274H61.5402C62.205 52.0274 62.7437 51.4887 62.7437 50.8239V32.8514C62.7437 32.1866 62.2048 31.6479 61.5402 31.6479ZM60.3366 49.6204H57.6087V34.0549H60.3366V49.6204Z" fill="url(#paint3_linear)"/>
<path d="M71.8099 31.6479H66.6749C66.0101 31.6479 65.4714 32.1866 65.4714 32.8514V50.8239C65.4714 51.4887 66.0101 52.0274 66.6749 52.0274H71.8099C72.4748 52.0274 73.0134 51.4887 73.0134 50.8239V32.8514C73.0134 32.1866 72.4746 31.6479 71.8099 31.6479ZM70.6064 49.6204H67.8785V34.0549H70.6064V49.6204Z" fill="url(#paint4_linear)"/>
<defs>
<linearGradient id="paint0_linear" x1="16.7486" y1="55.8962" x2="65.7164" y2="-3.49879" gradientUnits="userSpaceOnUse">
<stop stop-color="#22917B"/>
<stop offset="1" stop-color="#22B573"/>
</linearGradient>
<linearGradient id="paint1_linear" x1="50.6672" y1="26.1541" x2="55.8297" y2="12.4687" gradientUnits="userSpaceOnUse">
<stop stop-color="#22917B"/>
<stop offset="1" stop-color="#22B573"/>
</linearGradient>
<linearGradient id="paint2_linear" x1="46.4719" y1="51.5693" x2="56.6356" y2="48.4355" gradientUnits="userSpaceOnUse">
<stop stop-color="#22917B"/>
<stop offset="1" stop-color="#22B573"/>
</linearGradient>
<linearGradient id="paint3_linear" x1="56.7421" y1="51.5693" x2="66.9059" y2="48.4355" gradientUnits="userSpaceOnUse">
<stop stop-color="#22917B"/>
<stop offset="1" stop-color="#22B573"/>
</linearGradient>
<linearGradient id="paint4_linear" x1="67.0119" y1="51.5693" x2="77.1757" y2="48.4355" gradientUnits="userSpaceOnUse">
<stop stop-color="#22917B"/>
<stop offset="1" stop-color="#22B573"/>
</linearGradient>
</defs>
</svg>
