<svg width="18" height="18" viewBox="0 0 18 18" fill="none" xmlns="http://www.w3.org/2000/svg">
<path d="M12.9895 1.02084H5.01035C2.80695 1.02084 1.02075 2.80705 1.02075 5.01044V12.9896C1.02075 15.193 2.80695 16.9792 5.01035 16.9792H12.9895C15.1929 16.9792 16.9791 15.193 16.9791 12.9896V5.01044C16.9791 2.80705 15.1929 1.02084 12.9895 1.02084Z" stroke="#22917B" stroke-width="2" stroke-linecap="round" stroke-linejoin="round"/>
<path d="M8.99976 11.9921C10.6523 11.9921 11.992 10.6525 11.992 8.99992C11.992 7.34737 10.6523 6.00772 8.99976 6.00772C7.34722 6.00772 6.00757 7.34737 6.00757 8.99992C6.00757 10.6525 7.34722 11.9921 8.99976 11.9921Z" stroke="#22917B" stroke-width="2" stroke-linecap="round" stroke-linejoin="round"/>
<path d="M13.4883 4.51163V4.51263" stroke="#22917B" stroke-width="2" stroke-linecap="round" stroke-linejoin="round"/>
</svg>
