<svg width="68" height="67" viewBox="0 0 68 67" fill="none" xmlns="http://www.w3.org/2000/svg">
<g clip-path="url(#clip0)">
<path d="M64.7256 23.8038C64.7319 23.795 64.737 23.7858 64.743 23.7769L67.1173 20.4731C67.7029 19.6611 67.904 18.6503 67.6835 17.6266C67.4708 16.6399 66.8884 15.7611 66.0431 15.1517L63.8982 13.606C63.054 12.998 62.0371 12.7247 61.0349 12.8366C59.9953 12.9525 59.1005 13.4644 58.5155 14.278L56.7029 16.799C51.1954 9.69901 42.6863 5.49707 33.669 5.49707C25.8839 5.49707 18.5649 8.5319 13.0602 14.0424C7.7877 19.3207 4.78415 26.2658 4.54049 33.6903H4.15146C2.28714 33.6903 0.770508 35.2097 0.770508 37.0774V43.4122C0.770508 45.2798 2.28714 46.7993 4.15132 46.7993H35.2035L32.812 53.5323C32.8081 53.5431 32.804 53.5538 32.8005 53.5647L30.7051 59.4639C30.4953 60.0551 30.7694 60.7478 31.2387 61.1302C31.7604 61.5552 32.5963 61.6583 33.1495 61.2243L38.1212 57.3242C38.1214 57.3241 38.1215 57.3241 38.1216 57.324L43.7667 52.8958C43.7701 52.893 43.7729 52.8897 43.7763 52.887C43.802 52.8663 43.8263 52.8437 43.8501 52.8203C43.8577 52.8127 43.866 52.8059 43.8733 52.798C43.903 52.7666 43.9313 52.7334 43.9572 52.6973C43.9573 52.6971 43.9574 52.6969 43.9576 52.6967L43.958 52.6963L48.1954 46.7994H63.1863C65.0525 46.7994 66.5708 45.28 66.5708 43.4123V37.0775C66.5708 35.2099 65.0525 33.6904 63.1863 33.6904H62.797C62.7293 31.6448 62.4471 29.619 61.9609 27.6484L64.7092 23.8238C64.7145 23.8168 64.7205 23.8109 64.7256 23.8038ZM57.1405 19.5527L59.0543 20.9303L39.4311 48.2271L37.5175 46.8485L37.8315 46.4115C37.8456 46.3931 37.8594 46.3745 37.8722 46.355L57.1405 19.5527ZM34.6503 44.8364V43.3211C34.6503 42.7791 34.2108 42.3397 33.6688 42.3397C33.1268 42.3397 32.6874 42.7791 32.6874 43.3211V44.8364H29.5128V41.2543C29.5128 40.7123 29.0734 40.2729 28.5314 40.2729C27.9894 40.2729 27.55 40.7123 27.55 41.2543V44.8364H24.3754V43.3211C24.3754 42.7791 23.936 42.3397 23.394 42.3397C22.8519 42.3397 22.4125 42.7791 22.4125 43.3211V44.8364H19.2379V41.2543C19.2379 40.7123 18.7985 40.2729 18.2565 40.2729C17.7145 40.2729 17.2751 40.7123 17.2751 41.2543V44.8364H14.1005V43.3211C14.1005 42.7791 13.6611 42.3397 13.1191 42.3397C12.5771 42.3397 12.1376 42.7791 12.1376 43.3211V44.8364H8.96306V41.2543C8.96306 40.7123 8.52364 40.2729 7.98163 40.2729C7.43963 40.2729 7.00021 40.7123 7.00021 41.2543V44.8364H4.15132C3.36946 44.8364 2.73336 44.1976 2.73336 43.4122V37.0774C2.73336 36.2921 3.36946 35.6532 4.15132 35.6532H5.50582C6.04783 35.6532 6.48725 35.2137 6.48725 34.6717C6.48725 32.578 6.72515 30.5391 7.17451 28.58L9.08607 29.0917C9.17112 29.1145 9.25644 29.1254 9.34045 29.1254C9.77385 29.1254 10.1705 28.836 10.2879 28.3974C10.428 27.8738 10.1172 27.3358 9.59366 27.1956L7.68289 26.6841C8.19258 25.0256 8.85733 23.4348 9.65896 21.9273L13.9423 24.4043C14.0971 24.4938 14.266 24.5363 14.4327 24.5363C14.7717 24.5363 15.1013 24.3605 15.2833 24.046C15.5546 23.5768 15.3943 22.9764 14.925 22.705L10.6423 20.2285C11.5593 18.7687 12.6106 17.4022 13.7791 16.1457L15.1665 17.5345C15.3582 17.7263 15.6094 17.8223 15.8608 17.8223C16.1118 17.8223 16.3628 17.7267 16.5543 17.5352C16.9379 17.1522 16.9381 16.5308 16.5551 16.1474L15.1663 14.7572C16.4189 13.59 17.781 12.5397 19.2358 11.6234L21.7105 15.9033C21.8924 16.2179 22.222 16.3938 22.561 16.3938C22.7278 16.3938 22.8967 16.3513 23.0514 16.2617C23.5206 15.9905 23.6811 15.3901 23.4098 14.9209L20.9335 10.6378C22.4409 9.83393 24.0319 9.1676 25.6905 8.65674L26.2036 10.5705C26.3211 11.009 26.7176 11.2981 27.1509 11.2981C27.235 11.2981 27.3204 11.2872 27.4056 11.2643C27.9292 11.124 28.2398 10.5858 28.0994 10.0623L27.5861 8.14718C29.2347 7.76835 30.9406 7.54171 32.6874 7.47929V12.4343C32.6874 12.9763 33.1268 13.4157 33.6688 13.4157C34.2108 13.4157 34.6503 12.9763 34.6503 12.4343V7.47981C36.3815 7.54262 38.0884 7.77149 39.7508 8.1549L39.2415 10.0636C39.1017 10.5873 39.4131 11.1251 39.9367 11.2648C40.0215 11.2875 40.1066 11.2982 40.1903 11.2982C40.624 11.2982 41.0209 11.0085 41.138 10.5696L41.6464 8.66407C43.2932 9.17166 44.8855 9.83432 46.4028 10.6404L43.9277 14.921C43.6565 15.3902 43.8169 15.9905 44.2862 16.2619C44.4408 16.3514 44.6098 16.3939 44.7765 16.3939C45.1154 16.3939 45.4452 16.218 45.627 15.9035L48.1021 11.6227C49.5512 12.5318 50.9171 13.5787 52.1796 14.7526L50.7862 16.1475C50.4032 16.5309 50.4035 17.1524 50.787 17.5354C50.9786 17.7268 51.2296 17.8225 51.4805 17.8225C51.7318 17.8225 51.9832 17.7266 52.1749 17.5346L53.568 16.14C54.2522 16.8751 54.9001 17.6499 55.505 18.4651L49.6393 26.6236C48.3108 23.9789 46.3517 21.7071 43.8976 19.9906C40.8895 17.8866 37.3523 16.7746 33.6688 16.7746C29.0094 16.7746 24.5985 18.5584 21.2486 21.7974C17.9075 25.028 15.9729 29.3621 15.8012 34.0019C15.7943 34.1919 15.7732 34.7701 16.1968 35.2097C16.6246 35.6534 17.2108 35.6534 17.5611 35.6534H28.7644C29.3065 35.6534 29.7459 35.214 29.7459 34.672C29.7459 34.13 29.3065 33.6906 28.7644 33.6906H17.7814C18.2895 25.2745 25.1959 18.7374 33.6688 18.7374C40.0285 18.7374 45.8521 22.6194 48.3253 28.4512L44.5582 33.6906H33.2136C32.6716 33.6906 32.2322 34.13 32.2322 34.672C32.2322 35.214 32.6716 35.6534 33.2136 35.6534H43.1478L36.5464 44.8367H34.6503V44.8364ZM33.01 58.839L34.2217 55.4276L35.8558 56.6066L33.01 58.839ZM37.4632 55.3457L34.9061 53.5008L36.6355 48.6322L41.5282 52.1569L37.4632 55.3457ZM53.884 35.5241C53.5677 35.9643 53.6681 36.5775 54.1081 36.8938C54.5485 37.2101 55.1615 37.1097 55.4778 36.6697L60.4133 29.8018C60.7015 31.4015 60.8504 33.0316 60.8504 34.6717C60.8504 35.2137 61.2898 35.6532 61.8318 35.6532H63.1863C63.9702 35.6532 64.608 36.292 64.608 37.0774V43.4122C64.608 44.1975 63.9702 44.8364 63.1863 44.8364H60.3411V41.2543C60.3411 40.7123 59.9017 40.2729 59.3597 40.2729C58.8177 40.2729 58.3783 40.7123 58.3783 41.2543V44.8364H55.2037V43.3211C55.2037 42.7791 54.7643 42.3397 54.2223 42.3397C53.6802 42.3397 53.2408 42.7791 53.2408 43.3211V44.8364H49.6059L52.9548 40.176C53.2711 39.7358 53.1707 39.1226 52.7305 38.8063C52.2903 38.4901 51.6771 38.5904 51.3608 39.0306L46.9127 45.2206C46.8974 45.2405 46.8825 45.2608 46.8688 45.2819L42.9373 50.7529L41.0238 49.3744L60.6473 22.0772L62.5586 23.453L53.884 35.5241ZM58.2863 17.959L60.1091 15.4237C60.3656 15.067 60.7716 14.8409 61.2524 14.7874C61.7699 14.7295 62.3024 14.8757 62.7508 15.1987L64.8953 16.7441C65.3457 17.0689 65.6546 17.5291 65.7646 18.04C65.8665 18.5133 65.7815 18.9696 65.5244 19.3263L63.7041 21.8591L58.2863 17.959Z" fill="#22917B"/>
</g>
<defs>
<clipPath id="clip0">
<rect width="67" height="67" fill="white" transform="translate(0.770508)"/>
</clipPath>
</defs>
</svg>
