<svg width="68" height="67" viewBox="0 0 68 67" fill="none" xmlns="http://www.w3.org/2000/svg">
<g clip-path="url(#clip0)">
<path d="M33.8321 30.1459C34.9511 30.1459 35.9956 29.5432 36.5582 28.5727C36.83 28.1038 36.6702 27.5033 36.2012 27.2315C35.7324 26.9596 35.1318 27.1194 34.8599 27.5884C34.6474 27.9552 34.2535 28.183 33.8321 28.183C33.4108 28.183 33.017 27.9552 32.8044 27.5884C32.5326 27.1193 31.9322 26.9595 31.4631 27.2315C30.9942 27.5033 30.8343 28.1038 31.1061 28.5727C31.6686 29.5432 32.7132 30.1459 33.8321 30.1459Z" fill="#22917B"/>
<path d="M29.4961 24.726C30.0381 24.726 30.4775 24.2867 30.4775 23.7445V22.6606C30.4775 22.1185 30.0381 21.6792 29.4961 21.6792C28.9541 21.6792 28.5146 22.1185 28.5146 22.6606V23.7445C28.5146 24.2867 28.9541 24.726 29.4961 24.726Z" fill="#22917B"/>
<path d="M38.168 24.726C38.71 24.726 39.1494 24.2867 39.1494 23.7445V22.6606C39.1494 22.1185 38.71 21.6792 38.168 21.6792C37.6259 21.6792 37.1865 22.1185 37.1865 22.6606V23.7445C37.1865 24.2867 37.6259 24.726 38.168 24.726Z" fill="#22917B"/>
<path d="M62.1629 52.0299H60.8281V42.1717V42.1716C60.828 39.2398 58.4427 36.8545 55.5109 36.8545H50.091C48.9521 36.8545 48.0256 37.781 48.0256 38.9198V41.1903H46.6349C46.0929 41.1903 45.6534 41.6296 45.6534 42.1717C45.6534 42.7139 46.0929 43.1531 46.6349 43.1531H58.8653V52.1666C57.6111 52.5546 56.6973 53.725 56.6973 55.1051V64.9719C56.6973 64.994 56.6999 65.0153 56.7006 65.0373H20.6196C20.0776 65.0373 19.6382 65.4766 19.6382 66.0187C19.6382 66.5609 20.0776 67.0002 20.6196 67.0002H64.2567C65.9523 67.0002 67.3319 65.6207 67.3319 63.925V57.1988C67.3319 54.3486 65.013 52.0299 62.1629 52.0299ZM49.9885 38.9198C49.9885 38.8633 50.0346 38.8174 50.091 38.8174H55.5109C57.0191 38.8174 58.2977 39.8181 58.7184 41.1903H49.9885V38.9198ZM65.369 63.925C65.369 64.5382 64.87 65.0373 64.2567 65.0373H58.7628H58.7258C58.6896 65.0373 58.6603 65.0078 58.6603 64.9719V62.6643H62.0145C62.5565 62.6643 62.996 62.225 62.996 61.6828C62.996 61.1407 62.5565 60.7014 62.0145 60.7014H58.6603V58.3285H62.0145C62.5565 58.3285 62.996 57.8892 62.996 57.3471C62.996 56.8049 62.5565 56.3656 62.0145 56.3656H58.6603V55.1051C58.6603 54.4917 59.1593 53.9928 59.7726 53.9928H62.1629C63.9307 53.9928 65.369 55.4309 65.369 57.1988V63.925Z" fill="#22917B"/>
<path d="M42.7091 43.153C43.2512 43.153 43.6906 42.7137 43.6906 42.1715C43.6906 41.6294 43.2512 41.1901 42.7091 41.1901H41.3171V36.139C43.7247 34.1641 45.3411 31.2589 45.6119 27.9777H46.8393C48.576 27.9777 49.9887 26.565 49.9887 24.8285V20.4926C49.9887 19.8153 49.7731 19.1876 49.4077 18.6734C49.7665 18.3016 49.9887 17.797 49.9887 17.2407V16.1568C49.9887 14.4202 48.576 13.0076 46.8393 13.0076H46.7369V8.5692C46.7369 5.03939 43.8653 2.16782 40.3356 2.16782H37.5232V2.02832C37.5232 0.909865 36.6133 0 35.4949 0H32.1688C31.0504 0 30.1405 0.909865 30.1405 2.02832V2.16769H27.3282C23.7985 2.16769 20.9268 5.03926 20.9268 8.56907L20.9269 13.0074H20.8246C19.0881 13.0074 17.6753 14.4202 17.6753 16.1567V17.2406C17.6753 17.7969 17.8974 18.3015 18.2564 18.6732C17.8911 19.1875 17.6753 19.815 17.6753 20.4923V24.8282C17.6753 26.5648 19.0881 27.9776 20.8246 27.9776H22.0523C22.3232 31.2585 23.9393 34.1636 26.3467 36.1384V41.1898H19.6382V38.9194C19.6382 37.7805 18.7118 36.8541 17.5729 36.8541H12.153C9.22105 36.8541 6.83587 39.2392 6.83574 42.1711V42.1713V52.0297H5.50098C2.65086 52.0297 0.332031 54.3485 0.332031 57.1986V63.9248C0.332031 65.6205 1.71155 67 3.40723 67H16.6939C17.2359 67 17.6753 66.5607 17.6753 66.0186C17.6753 65.4764 17.2359 65.0371 16.6939 65.0371H10.9632C10.9638 65.0151 10.9664 64.9938 10.9664 64.9717V55.1049C10.9664 53.725 10.0528 52.5544 8.79863 52.1664V43.153H42.7091ZM48.026 24.8283C48.026 25.4825 47.4937 26.0147 46.8395 26.0147H45.653V19.3059H46.8421C47.4951 19.3074 48.0258 19.8389 48.0258 20.4923V24.8283H48.026ZM40.3357 4.13058C42.7831 4.13058 44.7741 6.12173 44.7741 8.56907V13.0074H42.4012V11.8211C42.4012 11.2789 41.9618 10.8396 41.4198 10.8396C40.8778 10.8396 40.4383 11.2789 40.4383 11.8211V13.0074H37.5234V4.13058H40.3357ZM32.1035 2.02832C32.1035 1.99233 32.1328 1.96289 32.1689 1.96289H35.495C35.5311 1.96289 35.5604 1.99233 35.5604 2.02832V13.0074H32.1035V2.02832ZM22.89 8.56907C22.89 6.12173 24.881 4.13058 27.3285 4.13058H30.1408V13.0074H27.2259V11.8211C27.2259 11.2789 26.7864 10.8396 26.2444 10.8396C25.7024 10.8396 25.263 11.2789 25.263 11.8211V13.0074H22.8902L22.89 8.56907ZM19.6382 16.1568C19.6382 15.5026 20.1704 14.9704 20.8246 14.9704H46.8395C47.4937 14.9704 48.026 15.5026 48.026 16.1568V17.2407C48.026 17.2973 47.9799 17.3432 47.9235 17.3432H19.7407C19.6842 17.3432 19.6382 17.2971 19.6382 17.2407V16.1568ZM19.6382 24.8283V20.4926C19.6382 19.8384 20.1704 19.3062 20.8246 19.3062H22.0111L22.0112 26.0151H20.8246C20.1704 26.015 19.6382 25.4826 19.6382 24.8283ZM23.9741 26.9968L23.974 19.3062H43.6901V26.9968C43.6901 32.4324 39.2678 36.8547 33.832 36.8547C28.3963 36.8547 23.9741 32.4324 23.9741 26.9968ZM28.3096 37.4455C29.959 38.3207 31.8385 38.8176 33.8322 38.8176C35.8257 38.8176 37.7051 38.3209 39.3543 37.4458V41.1901H28.3098V37.4455H28.3096ZM12.153 38.8172H17.5729C17.6294 38.8172 17.6753 38.8633 17.6753 38.9197V41.1901H8.94546C9.36617 39.8179 10.6448 38.8172 12.153 38.8172ZM9.00369 56.3655H5.6495C5.10748 56.3655 4.66806 56.8047 4.66806 57.3469C4.66806 57.889 5.10748 58.3283 5.6495 58.3283H9.00369V60.7012H5.6495C5.10748 60.7012 4.66806 61.1405 4.66806 61.6827C4.66806 62.2248 5.10748 62.6641 5.6495 62.6641H9.00369V64.9717C9.00369 65.0077 8.97438 65.0371 8.93826 65.0371H8.90123H3.40723C2.79389 65.0371 2.29492 64.538 2.29492 63.9248V57.1986C2.29492 55.4307 3.7332 53.9926 5.50098 53.9926H7.89138C8.50472 53.9926 9.00369 54.4915 9.00369 55.1049V56.3655Z" fill="#22917B"/>
</g>
<defs>
<clipPath id="clip0">
<rect width="67" height="67" fill="white" transform="translate(0.332031)"/>
</clipPath>
</defs>
</svg>
