<svg width="83" height="52" viewBox="0 0 83 52" fill="none" xmlns="http://www.w3.org/2000/svg">
<path d="M81.6812 26.4758H73.8985V2.00418C73.8985 1.33952 73.3598 0.800659 72.6949 0.800659H67.532C66.8672 0.800659 66.3285 1.33952 66.3285 2.00418C66.3285 2.66885 66.8672 3.2077 67.532 3.2077H71.4914V26.4758H57.2096V14.8418C57.2096 14.4531 57.0219 14.0883 56.7056 13.8624L47.7193 7.44362C47.3009 7.14483 46.7387 7.14483 46.3201 7.44362L37.3338 13.8624C37.0176 14.0883 36.8298 14.4531 36.8298 14.8418V26.4758H22.548V3.2077H61.8178C62.4827 3.2077 63.0214 2.66885 63.0214 2.00418C63.0214 1.33952 62.4827 0.800659 61.8178 0.800659H21.3446C20.6798 0.800659 20.1411 1.33952 20.1411 2.00418V26.4758H13.5619V16.9189C13.5619 16.0506 13.1209 15.2596 12.3821 14.8031C11.6433 14.3465 10.7387 14.3059 9.96205 14.6943L2.25951 18.5456C1.41159 18.9695 0.884766 19.8221 0.884766 20.7701V44.8584C0.884766 45.8066 1.41159 46.659 2.25951 47.083L9.96205 50.9343C10.3162 51.1114 10.6967 51.1992 11.076 51.1992C11.5289 51.1992 11.9801 51.0739 12.3821 50.8255C13.1209 50.3689 13.5619 49.578 13.5619 48.7097V39.1527H20.1411V43.0843C20.1411 43.7489 20.6798 44.2878 21.3446 44.2878H72.6949C73.3598 44.2878 73.8985 43.7489 73.8985 43.0843V39.1527H81.6812C82.3461 39.1527 82.8848 38.6139 82.8848 37.9492V27.6792C82.8848 27.0147 82.3461 26.4758 81.6812 26.4758ZM39.237 15.4612L47.0198 9.90202L54.8026 15.4612V26.4758H50.7908V19.9768C50.7908 19.3121 50.2521 18.7733 49.5873 18.7733H44.4523C43.7875 18.7733 43.2488 19.3121 43.2488 19.9768V26.4758H39.237V15.4612ZM48.3838 26.4758H45.6558V21.1803H48.3838V26.4758ZM3.3361 20.6984L11.0386 16.8471C11.0536 16.8398 11.0784 16.8271 11.1166 16.8507C11.1548 16.8743 11.1548 16.9022 11.1548 16.9189V26.4758H8.50707C8.2338 26.4758 7.9687 26.5689 7.75511 26.7396L3.29181 30.3102V20.7701C3.29181 20.7397 3.30866 20.7122 3.3361 20.6984ZM11.1548 48.7098C11.1548 48.7265 11.1548 48.7546 11.1168 48.778C11.0788 48.8016 11.0537 48.7891 11.0388 48.7816L3.33626 44.9303C3.30882 44.9167 3.29197 44.8891 3.29197 44.8586V35.3185L7.75527 38.8893C7.9687 39.06 8.23379 39.1531 8.50724 39.1531H11.1548V48.7098ZM71.4914 41.8809H22.5482V39.1529H71.4914V41.8809ZM80.4777 36.7459H8.92927L4.01489 32.8144L8.92927 28.8828H20.1411V31.5306C20.1411 32.1953 20.6798 32.7341 21.3446 32.7341C22.0095 32.7341 22.5482 32.1953 22.5482 31.5306V28.8828H30.4112V31.5306C30.4112 32.1953 30.9499 32.7341 31.6147 32.7341C32.2795 32.7341 32.8182 32.1953 32.8182 31.5306V28.8828H40.6812V31.5306C40.6812 32.1953 41.2199 32.7341 41.8848 32.7341C42.5496 32.7341 43.0883 32.1953 43.0883 31.5306V28.8828H50.9513V31.5306C50.9513 32.1953 51.49 32.7341 52.1548 32.7341C52.8196 32.7341 53.3583 32.1953 53.3583 31.5306V28.8828H61.2214V31.5306C61.2214 32.1953 61.7601 32.7341 62.4249 32.7341C63.0897 32.7341 63.6284 32.1953 63.6284 31.5306V28.8828H71.4914V31.5306C71.4914 32.1953 72.0301 32.7341 72.6949 32.7341C73.3598 32.7341 73.8985 32.1953 73.8985 31.5306V28.8828H80.4777V36.7459Z" fill="url(#paint0_linear)"/>
<defs>
<linearGradient id="paint0_linear" x1="17.6334" y1="50.0664" x2="60.2795" y2="-7.74295" gradientUnits="userSpaceOnUse">
<stop stop-color="#22917B"/>
<stop offset="1" stop-color="#22B573"/>
</linearGradient>
</defs>
</svg>
