<svg width="82" height="66" viewBox="0 0 82 66" fill="none" xmlns="http://www.w3.org/2000/svg">
<path d="M80.7965 0.344421H1.20352C0.538857 0.344421 0 0.883278 0 1.54794V52.8982C0 53.5629 0.538857 54.1018 1.20352 54.1018H80.7965C81.4611 54.1018 82 53.5629 82 52.8982V1.54794C82 0.883278 81.4611 0.344421 80.7965 0.344421ZM79.593 51.6947H2.40704V2.75147H79.593V51.6947Z" fill="url(#paint0_linear)"/>
<path d="M6.33878 48.9667H65.3916C66.0563 48.9667 66.5951 48.4279 66.5951 47.7632V6.68295C66.5951 6.01829 66.0563 5.47943 65.3916 5.47943H56.3912C55.7265 5.47943 55.1877 6.01829 55.1877 6.68295C55.1877 7.34762 55.7265 7.88648 56.3912 7.88648H64.1881V46.5597H7.5423V7.88648H50.8447C51.5094 7.88648 52.0482 7.34762 52.0482 6.68295C52.0482 6.01829 51.5094 5.47943 50.8447 5.47943H6.33878C5.67411 5.47943 5.13525 6.01829 5.13525 6.68295V47.7632C5.13525 48.4279 5.67411 48.9667 6.33878 48.9667Z" fill="url(#paint1_linear)"/>
<path d="M73.094 48.9668C75.1734 48.9668 76.8651 47.2751 76.8651 45.1957C76.8651 43.1164 75.1734 41.4247 73.094 41.4247C71.0147 41.4247 69.323 43.1164 69.323 45.1957C69.323 47.2751 71.0147 48.9668 73.094 48.9668ZM73.094 43.8317C73.8462 43.8317 74.458 44.4436 74.458 45.1957C74.458 45.9478 73.8462 46.5597 73.094 46.5597C72.3419 46.5597 71.73 45.9478 71.73 45.1957C71.73 44.4436 72.3419 43.8317 73.094 43.8317Z" fill="url(#paint2_linear)"/>
<path d="M70.5265 13.0215H75.6615C76.3262 13.0215 76.8651 12.4826 76.8651 11.818V6.68295C76.8651 6.01829 76.3262 5.47943 75.6615 5.47943H70.5265C69.8619 5.47943 69.323 6.01829 69.323 6.68295V11.818C69.323 12.4826 69.8619 13.0215 70.5265 13.0215ZM71.73 7.88648H74.458V10.6145H71.73V7.88648Z" fill="url(#paint3_linear)"/>
<path d="M70.5265 23.2916H75.6615C76.3262 23.2916 76.8651 22.7527 76.8651 22.0881V16.953C76.8651 16.2884 76.3262 15.7495 75.6615 15.7495H70.5265C69.8619 15.7495 69.323 16.2884 69.323 16.953V22.0881C69.323 22.7527 69.8619 23.2916 70.5265 23.2916ZM71.73 18.1566H74.458V20.8845H71.73V18.1566Z" fill="url(#paint4_linear)"/>
<path d="M70.5265 28.4266H75.6615C76.3262 28.4266 76.8651 27.8878 76.8651 27.2231C76.8651 26.5584 76.3262 26.0196 75.6615 26.0196H70.5265C69.8619 26.0196 69.323 26.5584 69.323 27.2231C69.323 27.8878 69.8619 28.4266 70.5265 28.4266Z" fill="url(#paint5_linear)"/>
<path d="M70.5265 33.5616H75.6615C76.3262 33.5616 76.8651 33.0228 76.8651 32.3581C76.8651 31.6935 76.3262 31.1546 75.6615 31.1546H70.5265C69.8619 31.1546 69.323 31.6935 69.323 32.3581C69.323 33.0228 69.8619 33.5616 70.5265 33.5616Z" fill="url(#paint6_linear)"/>
<path d="M70.5265 38.6967H75.6615C76.3262 38.6967 76.8651 38.1579 76.8651 37.4932C76.8651 36.8285 76.3262 36.2897 75.6615 36.2897H70.5265C69.8619 36.2897 69.323 36.8285 69.323 37.4932C69.323 38.1579 69.8619 38.6967 70.5265 38.6967Z" fill="url(#paint7_linear)"/>
<path d="M67.9591 58.1135H37.0687V58.0333C37.0687 57.3686 36.5298 56.8297 35.8652 56.8297C35.2005 56.8297 34.6617 57.3686 34.6617 58.0333V58.1135H31.9337V58.0333C31.9337 57.3686 31.3948 56.8297 30.7301 56.8297C30.0655 56.8297 29.5266 57.3686 29.5266 58.0333V58.1135H17.8926C17.7331 58.1135 17.5699 58.1464 17.4227 58.2087L11.0267 60.767C10.5699 60.9498 10.2703 61.3924 10.2703 61.8845C10.2703 62.3767 10.5699 62.8193 11.0267 63.0019L17.4227 65.5603C17.5695 65.6225 17.7332 65.6554 17.8926 65.6554H67.9591C70.0385 65.6554 71.7301 63.9637 71.7301 61.8844C71.7301 59.805 70.0385 58.1135 67.9591 58.1135ZM19.0961 60.5205H60.3368V63.2485H19.0961V60.5205ZM16.6891 61.0947V62.6745L14.7143 61.8845L16.6891 61.0947ZM67.9591 63.2485H62.7438V60.5205H67.9591C68.7112 60.5205 69.3231 61.1324 69.3231 61.8845C69.3231 62.6367 68.7112 63.2485 67.9591 63.2485Z" fill="url(#paint8_linear)"/>
<path d="M46.0548 35.0059V23.3719C46.0548 22.9832 45.8671 22.6185 45.5508 22.3925L36.5645 15.9737C36.1461 15.6749 35.5839 15.6749 35.1653 15.9737L26.179 22.3925C25.8628 22.6185 25.675 22.9832 25.675 23.3719V35.0059H20.4597C19.7951 35.0059 19.2562 35.5448 19.2562 36.2095C19.2562 36.8741 19.7951 37.413 20.4597 37.413H51.2699C51.9346 37.413 52.4734 36.8741 52.4734 36.2095C52.4734 35.5448 51.9346 35.0059 51.2699 35.0059H46.0548ZM34.501 35.0059V29.7104H37.229V35.0059H34.501ZM39.636 35.0059V28.5069C39.636 27.8422 39.0972 27.3034 38.4325 27.3034H33.2975C32.6328 27.3034 32.094 27.8422 32.094 28.5069V35.0059H28.0822V23.9913L35.865 18.4321L43.6478 23.9913V35.0059H39.636Z" fill="url(#paint9_linear)"/>
<defs>
<linearGradient id="paint0_linear" x1="16.7486" y1="52.8935" x2="63.0223" y2="-5.91413" gradientUnits="userSpaceOnUse">
<stop stop-color="#22917B"/>
<stop offset="1" stop-color="#22B573"/>
</linearGradient>
<linearGradient id="paint1_linear" x1="17.6885" y1="47.9893" x2="55.6941" y2="3.2386" gradientUnits="userSpaceOnUse">
<stop stop-color="#22917B"/>
<stop offset="1" stop-color="#22B573"/>
</linearGradient>
<linearGradient id="paint2_linear" x1="70.8635" y1="48.7972" x2="77.4332" y2="43.3236" gradientUnits="userSpaceOnUse">
<stop stop-color="#22917B"/>
<stop offset="1" stop-color="#22B573"/>
</linearGradient>
<linearGradient id="paint3_linear" x1="70.8635" y1="12.852" x2="77.4332" y2="7.37839" gradientUnits="userSpaceOnUse">
<stop stop-color="#22917B"/>
<stop offset="1" stop-color="#22B573"/>
</linearGradient>
<linearGradient id="paint4_linear" x1="70.8635" y1="23.1221" x2="77.4332" y2="17.6485" gradientUnits="userSpaceOnUse">
<stop stop-color="#22917B"/>
<stop offset="1" stop-color="#22B573"/>
</linearGradient>
<linearGradient id="paint5_linear" x1="70.8635" y1="28.3725" x2="72.2877" y2="24.6546" gradientUnits="userSpaceOnUse">
<stop stop-color="#22917B"/>
<stop offset="1" stop-color="#22B573"/>
</linearGradient>
<linearGradient id="paint6_linear" x1="70.8635" y1="33.5075" x2="72.2877" y2="29.7896" gradientUnits="userSpaceOnUse">
<stop stop-color="#22917B"/>
<stop offset="1" stop-color="#22B573"/>
</linearGradient>
<linearGradient id="paint7_linear" x1="70.8635" y1="38.6426" x2="72.2877" y2="34.9247" gradientUnits="userSpaceOnUse">
<stop stop-color="#22917B"/>
<stop offset="1" stop-color="#22B573"/>
</linearGradient>
<linearGradient id="paint8_linear" x1="22.8235" y1="65.457" x2="25.4402" y2="50.2754" gradientUnits="userSpaceOnUse">
<stop stop-color="#22917B"/>
<stop offset="1" stop-color="#22B573"/>
</linearGradient>
<linearGradient id="paint9_linear" x1="26.0409" y1="36.9261" x2="44.6654" y2="13.1333" gradientUnits="userSpaceOnUse">
<stop stop-color="#22917B"/>
<stop offset="1" stop-color="#22B573"/>
</linearGradient>
</defs>
</svg>
