<svg width="68" height="67" viewBox="0 0 68 67" fill="none" xmlns="http://www.w3.org/2000/svg">
<g clip-path="url(#clip0)">
<path d="M63.8618 27.5352H57.6409C57.0986 27.5352 56.6595 27.9743 56.6595 28.5166C56.6595 29.059 57.0986 29.498 57.6409 29.498H63.8618C64.693 29.498 65.3693 30.1743 65.3693 31.006V33.4504H62.0707C61.5284 33.4504 61.0893 33.8895 61.0893 34.4319C61.0893 34.9737 61.5284 35.4133 62.0707 35.4133H65.3693V45.9357L60.2509 47.3087H39.7623C39.2199 47.3087 38.7808 47.7478 38.7808 48.2902C38.7808 48.832 39.2199 49.2716 39.7623 49.2716H60.1778L65.3693 51.51V54.5551C65.3693 55.3867 64.693 56.063 63.8618 56.063H16.4386C15.6069 56.063 14.9307 55.3867 14.9307 54.5551V45.5012H26.3262C26.8685 45.5012 27.3076 45.0616 27.3076 44.5198C27.3076 43.9774 26.8685 43.5383 26.3262 43.5383H14.9307V42.4633C14.9307 41.9215 14.4916 41.4819 13.9492 41.4819C13.4074 41.4819 12.9678 41.9215 12.9678 42.4633V54.5551C12.9678 56.4689 14.5248 58.0259 16.4386 58.0259H63.8618C65.7752 58.0259 67.3322 56.4689 67.3322 54.5551V50.8644C67.3322 50.4723 67.0991 50.1181 66.7392 49.9627L63.3614 48.5064L66.6053 47.6364C67.0337 47.5209 67.3322 47.1324 67.3322 46.6882V31.006C67.3322 29.0922 65.7752 27.5352 63.8618 27.5352Z" fill="#22917B"/>
<path d="M54.6964 36.05V12.5004C54.6964 10.5866 53.1399 9.02954 51.2261 9.02954H38.0793C38.0686 9.02954 38.0584 9.02954 38.0476 9.02954H22.1932C21.6509 9.02954 21.2118 9.46915 21.2118 10.011C21.2118 10.5533 21.6509 10.9924 22.1932 10.9924H28.659C29.4651 12.0843 30.3873 13.5795 30.7481 15.0838C31.1213 16.6393 30.8034 17.8309 29.7774 18.7274C28.3078 20.0105 26.1722 20.0386 25.0292 19.9425C22.5459 19.7339 20.0049 19.0244 17.4761 17.8339C16.1016 17.1863 14.7531 16.443 13.326 15.6569C10.0172 13.833 6.60817 11.955 2.84698 11.3349C3.10768 11.1212 3.44045 10.9929 3.80287 10.9929H18.2674C18.8093 10.9929 19.2489 10.5533 19.2489 10.0115C19.2489 9.46915 18.8093 9.03005 18.2674 9.03005H3.80287C1.88905 9.03005 0.332031 10.5866 0.332031 12.5004V26.6828V26.7191V33.5043V33.5427V36.05C0.332031 37.9638 1.88905 39.5203 3.80287 39.5203H51.2261C53.1394 39.5203 54.6964 37.9638 54.6964 36.05ZM52.7335 12.5004V23.1751C51.8538 24.2951 50.8601 25.3369 49.7759 26.2764C45.8374 29.6925 40.6613 31.8579 35.2015 32.3736C26.7881 33.1649 17.9597 30.0263 9.255 30.6086C6.75692 30.7767 4.381 31.27 2.29492 32.049V27.5006C3.11637 27.3381 3.95162 27.1965 4.78738 27.0789C11.7418 26.096 18.7556 26.579 25.2986 27.2471L25.6191 27.2803C27.6167 27.4858 29.6829 27.698 31.7562 27.5017C34.3187 27.2584 36.4998 26.3894 38.0625 24.9893C41.2082 22.1712 41.5389 17.6882 40.8003 14.4336C40.5483 13.3193 40.1624 12.1835 39.6307 10.9924H51.2261C52.0573 10.9924 52.7335 11.6687 52.7335 12.5004ZM16.6399 19.6092C19.3808 20.8999 22.1482 21.6702 24.8641 21.8982C25.1948 21.9263 25.5199 21.9401 25.8394 21.9401C27.9403 21.9396 29.7718 21.338 31.0686 20.2057C33.4803 18.0987 33.4466 14.7981 31.039 10.9924H37.4618C38.1402 12.3649 38.6074 13.6372 38.886 14.8671C39.6594 18.274 38.8221 21.6733 36.7529 23.5268C35.1759 24.9402 33.0643 25.4054 31.5706 25.5475C29.6905 25.7259 27.723 25.5229 25.82 25.3277L25.4979 25.2944C18.8318 24.6136 11.6754 24.1234 4.51289 25.135C3.77067 25.2397 3.02845 25.3624 2.29492 25.501V13.2354C5.82148 13.7619 9.15022 15.5965 12.3788 17.3754C13.7697 18.1422 15.2086 18.9355 16.6399 19.6092ZM2.29492 36.05V34.1607C4.35545 33.2902 6.7927 32.7412 9.38638 32.5668C17.9597 31.9923 26.529 35.16 35.3855 34.3278C41.2496 33.7737 46.8173 31.4413 51.062 27.7598C51.6442 27.2553 52.2024 26.7232 52.7335 26.167V36.05C52.7335 36.8811 52.0573 37.5574 51.2261 37.5574H3.80287C2.9712 37.5574 2.29492 36.8811 2.29492 36.05Z" fill="#22917B"/>
</g>
<defs>
<clipPath id="clip0">
<rect width="67" height="67" fill="white" transform="translate(0.332031)"/>
</clipPath>
</defs>
</svg>
