<svg width="68" height="69" viewBox="0 0 68 69" fill="none" xmlns="http://www.w3.org/2000/svg">
<g clip-path="url(#clip0)">
<path d="M57.6987 23.2231C57.698 23.2231 57.6972 23.2231 57.6965 23.2231H1.72978C1.20061 23.2226 0.771068 23.6574 0.770508 24.1945C0.770508 24.1952 0.770508 24.196 0.770508 24.1967V51.4617C0.769949 51.9988 1.19837 52.4347 1.72754 52.4353C1.72824 52.4353 1.72908 52.4353 1.72978 52.4353H39.7871C40.3169 52.4353 40.7464 51.9993 40.7464 51.4617C40.7464 50.9241 40.3169 50.4881 39.7871 50.4881H2.68905V25.1703H56.7372V27.6049C56.7367 28.1419 57.1651 28.5779 57.6943 28.5784C57.695 28.5784 57.6958 28.5784 57.6965 28.5784C58.2257 28.579 58.6552 28.1442 58.6558 27.6071C58.6558 27.6064 58.6558 27.6056 58.6558 27.6049V24.1967C58.6563 23.6597 58.2279 23.2239 57.6987 23.2231Z" fill="#22917B"/>
<path d="M51.1907 18.703L6.41736 8.47864C6.16886 8.42226 5.90848 8.46799 5.69315 8.60587C5.47809 8.7449 5.326 8.96458 5.27004 9.21706L3.03137 19.4414C2.91636 19.9666 3.24264 20.4869 3.76006 20.6036C4.27747 20.7203 4.79012 20.3892 4.90513 19.864L6.93449 10.5928L50.7699 20.6025C50.8393 20.6188 50.9102 20.6269 50.9814 20.6263C51.5111 20.6253 51.9398 20.1887 51.939 19.651C51.9382 19.1965 51.6275 18.8031 51.1907 18.703Z" fill="#22917B"/>
<path d="M45.7542 13.0694L18.8902 1.70894C18.4233 1.51141 17.8853 1.71434 17.6589 2.17358L15.4202 6.71775C15.1674 7.19233 15.3415 7.7852 15.8092 8.0418C16.2768 8.2984 16.861 8.12175 17.1138 7.64703C17.1237 7.62842 17.1331 7.6094 17.1418 7.59008V7.59235L18.9786 3.8616L45.0132 14.871C45.5035 15.0786 46.0668 14.8437 46.2713 14.3461C46.4759 13.8488 46.2445 13.2771 45.7542 13.0694Z" fill="#22917B"/>
<path d="M46.4328 27.7673H37.5486C37.0189 27.7673 36.5894 28.2033 36.5894 28.7409C36.5894 29.2786 37.0189 29.7145 37.5486 29.7145H46.4328C46.9625 29.7145 47.392 29.2786 47.392 28.7409C47.392 28.2033 46.9625 27.7673 46.4328 27.7673Z" fill="#22917B"/>
<path d="M55.4577 31.0129C49.5252 31.0129 43.145 32.4353 43.145 35.5571V62.8221C43.145 65.9439 49.5252 67.3662 55.4577 67.3662C61.3902 67.3662 67.7704 65.9439 67.7704 62.8221V35.5571C67.7704 32.4353 61.3902 31.0129 55.4577 31.0129ZM65.5317 62.805C65.3627 63.4355 62.0058 65.0942 55.4577 65.0942C48.9096 65.0942 45.5527 63.4355 45.3837 62.8221V61.0362C47.7656 62.2541 51.7001 62.8221 55.4577 62.8221C59.2153 62.8221 63.1509 62.2484 65.5317 61.0351V62.805ZM65.5317 58.2609C65.3627 58.8914 62.0058 60.55 55.4577 60.55C48.9096 60.55 45.5527 58.8914 45.3837 58.2779V56.4921C47.7656 57.7099 51.7001 58.2779 55.4577 58.2779C59.2153 58.2779 63.1509 57.7042 65.5317 56.4909V58.2609ZM65.5317 53.7167C65.3627 54.3472 62.0058 56.0058 55.4577 56.0058C48.9096 56.0058 45.5527 54.3472 45.3837 53.7337V51.9479C47.7656 53.1657 51.7001 53.7337 55.4577 53.7337C59.2153 53.7337 63.1509 53.16 65.5317 51.9468V53.7167ZM65.5317 49.1725C65.3627 49.803 62.0058 51.4617 55.4577 51.4617C48.9096 51.4617 45.5527 49.803 45.3837 49.1896V47.4037C47.7656 48.6216 51.7001 49.1896 55.4577 49.1896C59.2153 49.1896 63.1509 48.6159 65.5317 47.4026V49.1725ZM65.5317 44.6284C65.3627 45.2589 62.0058 46.9175 55.4577 46.9175C48.9096 46.9175 45.5527 45.2589 45.3837 44.6454V42.8596C47.7656 44.0717 51.7001 44.6454 55.4577 44.6454C59.2153 44.6454 63.1509 44.0717 65.5317 42.8584V44.6284ZM65.5317 40.0842C65.3627 40.7147 62.0058 42.3733 55.4577 42.3733C48.9096 42.3733 45.5527 40.7147 45.3837 40.1013V38.3154C47.7656 39.5276 51.7001 40.1013 55.4577 40.1013C59.2153 40.1013 63.1509 39.5276 65.5317 38.3143V40.0842ZM55.4577 37.8292C48.9197 37.8292 45.5639 36.1751 45.3837 35.5775V35.5707C45.5639 34.938 48.9197 33.285 55.4577 33.285C61.9498 33.285 65.3078 34.9141 65.5317 35.5571C65.3078 36.2001 61.9498 37.8292 55.4577 37.8292Z" fill="#22917B"/>
<path d="M19.639 45.9429H11.1779L7.16624 41.4896V34.1053L11.5966 29.7145H19.639C20.1687 29.7145 20.5983 29.2786 20.5983 28.7409C20.5983 28.2033 20.1687 27.7673 19.639 27.7673H11.207C10.9563 27.7668 10.7152 27.8659 10.5354 28.0434L5.53537 32.9931C5.34858 33.2147 5.24616 33.4968 5.24658 33.7884V41.8679C5.24658 42.1109 5.33599 42.345 5.49731 42.5245L10.0452 47.5731C10.2269 47.775 10.4841 47.8902 10.7537 47.89H19.639C20.1687 47.89 20.5983 47.4541 20.5983 46.9165C20.5983 46.3788 20.1688 45.9429 19.639 45.9429Z" fill="#22917B"/>
</g>
<defs>
<clipPath id="clip0">
<rect width="67" height="68" fill="white" transform="translate(0.770508 0.5)"/>
</clipPath>
</defs>
</svg>
