<svg width="281" height="41" viewBox="0 0 281 41" fill="none" xmlns="http://www.w3.org/2000/svg">
<path d="M61.6092 31.8687C61.6092 30.537 62.5956 29.6492 63.9273 29.6492C64.7165 29.6492 65.3577 29.9944 65.7029 30.5863L65.111 30.9809C64.8151 30.537 64.4205 30.3397 63.9273 30.3397C63.0888 30.3397 62.3983 30.9315 62.3983 31.8687C62.3983 32.8058 63.0395 33.3976 63.9273 33.3976C64.4205 33.3976 64.8151 33.2003 65.111 32.7564L65.7029 33.151C65.3577 33.7429 64.7165 34.0881 63.9273 34.0881C62.5956 34.1375 61.6092 33.2003 61.6092 31.8687Z" fill="white"/>
<path d="M71.9666 30.389H70.3389V34.0881H69.5498V30.389H67.9222V29.6985H71.9173V30.389H71.9666Z" fill="white"/>
<path d="M79.3158 31.8687C79.3158 33.2003 78.3787 34.1375 77.0963 34.1375C76.4551 34.1375 75.9126 33.8908 75.5674 33.4469V35.7158H74.7782V29.6985H75.518V30.389C75.8633 29.8958 76.4551 29.6492 77.0963 29.6492C78.3787 29.6492 79.3158 30.537 79.3158 31.8687ZM78.5267 31.8687C78.5267 30.9315 77.8855 30.3397 77.047 30.3397C76.2085 30.3397 75.5674 30.9315 75.5674 31.8687C75.5674 32.8058 76.2085 33.3976 77.047 33.3976C77.8855 33.4469 78.5267 32.8058 78.5267 31.8687Z" fill="white"/>
<path d="M82.0778 31.8687C82.0778 30.537 83.0642 29.6492 84.3466 29.6492C85.6289 29.6492 86.6154 30.5863 86.6154 31.8687C86.6154 33.2003 85.6783 34.1375 84.3466 34.1375C83.0149 34.1375 82.0778 33.2003 82.0778 31.8687ZM85.8262 31.8687C85.8262 30.9315 85.185 30.3397 84.3466 30.3397C83.5081 30.3397 82.8669 30.9315 82.8669 31.8687C82.8669 32.8058 83.5081 33.3976 84.3466 33.3976C85.185 33.3976 85.8262 32.8058 85.8262 31.8687Z" fill="white"/>
<path d="M89.8215 29.6985H90.6107V32.9044L93.3234 29.6985H94.0632V34.0881H93.2741V30.8822L90.6107 34.0881H89.8709V29.6985H89.8215Z" fill="white"/>
<path d="M100.82 30.389H99.242V34.0881H98.4528V30.389H96.8252V29.6985H100.82V30.389Z" fill="white"/>
<path d="M107.38 32.1646H103.829C103.927 32.9537 104.568 33.447 105.407 33.447C105.9 33.447 106.344 33.2497 106.689 32.9044L107.133 33.3976C106.738 33.8415 106.147 34.0881 105.407 34.0881C103.976 34.0881 103.039 33.151 103.039 31.8193C103.039 30.537 103.976 29.5999 105.259 29.5999C106.541 29.5999 107.429 30.4876 107.429 31.8687C107.429 31.9673 107.429 32.0659 107.38 32.1646ZM103.829 31.5727H106.64C106.541 30.8329 105.999 30.2904 105.21 30.2904C104.47 30.2904 103.927 30.8329 103.829 31.5727Z" fill="white"/>
<path d="M114.334 29.6985V34.0881H113.545V30.389H111.671L111.622 31.3754C111.523 32.9044 111.326 34.1375 110.339 34.1375C110.191 34.1375 110.043 34.0881 109.846 34.0388L109.895 33.3483C109.994 33.3483 110.043 33.3976 110.093 33.3976C110.783 33.3976 110.832 32.3126 110.882 31.2768L110.98 29.6492H114.334V29.6985Z" fill="white"/>
<path d="M121.634 32.6085C121.634 33.5456 120.993 34.0881 119.809 34.0881H117.886V29.6985H118.675V31.1781H119.908C121.042 31.1781 121.634 31.7207 121.634 32.6085ZM120.845 32.6085C120.845 32.0166 120.5 31.77 119.76 31.77H118.724V33.4963H119.76C120.45 33.4963 120.845 33.2003 120.845 32.6085Z" fill="white"/>
<path d="M124.248 31.8687C124.248 30.537 125.234 29.6492 126.566 29.6492C127.355 29.6492 127.996 29.9944 128.342 30.5863L127.75 30.9809C127.454 30.537 127.059 30.3397 126.566 30.3397C125.728 30.3397 125.037 30.9315 125.037 31.8687C125.037 32.8058 125.678 33.3976 126.566 33.3976C127.059 33.3976 127.454 33.2003 127.75 32.7564L128.342 33.151C127.996 33.7429 127.355 34.0881 126.566 34.0881C125.234 34.1375 124.248 33.2003 124.248 31.8687Z" fill="white"/>
<path d="M134.605 30.389H132.978V34.0881H132.189V30.389H130.561V29.6985H134.556V30.389H134.605Z" fill="white"/>
<path d="M141.264 32.8551C141.264 33.5949 140.722 34.0881 139.538 34.0881H137.417V29.6985H139.439C140.475 29.6985 141.116 30.0931 141.116 30.8329C141.116 31.3261 140.87 31.622 140.426 31.8193C141.018 31.9673 141.264 32.3125 141.264 32.8551ZM138.206 31.5727H139.39C139.982 31.5727 140.327 31.3261 140.327 30.9315C140.327 30.4876 139.982 30.2904 139.39 30.2904H138.206V31.5727ZM140.475 32.8058C140.475 32.3619 140.179 32.1153 139.538 32.1153H138.206V33.4469H139.489C140.13 33.4469 140.475 33.2497 140.475 32.8058Z" fill="white"/>
<path d="M144.125 31.8687C144.125 30.537 145.111 29.6492 146.394 29.6492C147.676 29.6492 148.662 30.5863 148.662 31.8687C148.662 33.2003 147.725 34.1375 146.394 34.1375C145.062 34.1375 144.125 33.2003 144.125 31.8687ZM147.873 31.8687C147.873 30.9315 147.232 30.3397 146.394 30.3397C145.555 30.3397 144.914 30.9315 144.914 31.8687C144.914 32.8058 145.555 33.3976 146.394 33.3976C147.232 33.3976 147.873 32.8058 147.873 31.8687Z" fill="white"/>
<path d="M164.741 33.3976V35.1239H164.001V34.0881H160.352V35.1239H159.612V33.3976H159.858C160.499 33.3483 160.598 32.3125 160.647 31.1781L160.697 29.6985H164.1V33.3976H164.741ZM160.845 33.3976H163.311V30.389H161.387L161.338 31.2275C161.338 32.1153 161.239 33.0524 160.845 33.3976Z" fill="white"/>
<path d="M167.404 31.8687C167.404 30.537 168.391 29.6492 169.673 29.6492C170.955 29.6492 171.942 30.5863 171.942 31.8687C171.942 33.2003 171.005 34.1375 169.673 34.1375C168.341 34.1375 167.404 33.2003 167.404 31.8687ZM171.153 31.8687C171.153 30.9315 170.512 30.3397 169.673 30.3397C168.835 30.3397 168.193 30.9315 168.193 31.8687C168.193 32.8058 168.835 33.3976 169.673 33.3976C170.512 33.3976 171.153 32.8058 171.153 31.8687Z" fill="white"/>
<path d="M180.179 29.6985V34.0881H179.439V30.8822L177.811 33.5949H177.466L175.838 30.8822V34.0881H175.099V29.6985H175.937L177.663 32.6578L179.439 29.6985H180.179Z" fill="white"/>
<path d="M183.336 31.8687C183.336 30.537 184.322 29.6492 185.605 29.6492C186.887 29.6492 187.873 30.5863 187.873 31.8687C187.873 33.2003 186.936 34.1375 185.605 34.1375C184.273 34.1375 183.336 33.2003 183.336 31.8687ZM187.084 31.8687C187.084 30.9315 186.443 30.3397 185.605 30.3397C184.766 30.3397 184.125 30.9315 184.125 31.8687C184.125 32.8058 184.766 33.3976 185.605 33.3976C186.443 33.3976 187.084 32.8058 187.084 31.8687Z" fill="white"/>
<path d="M194.877 32.8551C194.877 33.5949 194.334 34.0881 193.15 34.0881H191.03V29.6985H193.052C194.088 29.6985 194.729 30.0931 194.729 30.8329C194.729 31.3261 194.482 31.622 194.038 31.8193C194.63 31.9673 194.877 32.3125 194.877 32.8551ZM191.819 31.5727H193.003C193.594 31.5727 193.94 31.3261 193.94 30.9315C193.94 30.4876 193.594 30.2904 193.003 30.2904H191.819V31.5727ZM194.088 32.8058C194.088 32.3619 193.792 32.1153 193.15 32.1153H191.819V33.4469H193.101C193.742 33.4469 194.088 33.2497 194.088 32.8058Z" fill="white"/>
<path d="M204.642 29.6985H205.431V32.9044L208.144 29.6985H208.884V34.0881H208.095V30.8822L205.431 34.0881H204.692V29.6985H204.642Z" fill="white"/>
<path d="M220.278 32.2139H219.39V34.0881H218.601V29.6985H219.39V31.5727H220.327L221.757 29.6985H222.596L220.919 31.8193L222.694 34.0881H221.757L220.278 32.2139Z" fill="white"/>
<path d="M225.012 31.8687C225.012 30.537 225.998 29.6492 227.281 29.6492C228.563 29.6492 229.55 30.5863 229.55 31.8687C229.55 33.2003 228.613 34.1375 227.281 34.1375C225.949 34.1375 225.012 33.2003 225.012 31.8687ZM228.76 31.8687C228.76 30.9315 228.119 30.3397 227.281 30.3397C226.442 30.3397 225.801 30.9315 225.801 31.8687C225.801 32.8058 226.442 33.3976 227.281 33.3976C228.119 33.3976 228.76 32.8058 228.76 31.8687Z" fill="white"/>
<path d="M235.814 30.389H234.186V34.0881H233.397V30.389H231.769V29.6985H235.764V30.389H235.814Z" fill="white"/>
<path d="M241.979 30.389H240.352V34.0881H239.563V30.389H237.935V29.6985H241.93V30.389H241.979Z" fill="white"/>
<path d="M248.588 32.1646H245.037C245.136 32.9537 245.777 33.447 246.616 33.447C247.109 33.447 247.553 33.2497 247.898 32.9044L248.342 33.3976C247.947 33.8415 247.355 34.0881 246.616 34.0881C245.185 34.0881 244.248 33.151 244.248 31.8193C244.248 30.537 245.185 29.5999 246.468 29.5999C247.75 29.5999 248.638 30.4876 248.638 31.8687C248.588 31.9673 248.588 32.0659 248.588 32.1646ZM244.988 31.5727H247.799C247.701 30.8329 247.158 30.2904 246.369 30.2904C245.629 30.2904 245.087 30.8329 244.988 31.5727Z" fill="white"/>
<path d="M256.234 33.3976V35.1239H255.494V34.0881H251.844V35.1239H251.104V33.3976H251.351C251.992 33.3483 252.09 32.3125 252.14 31.1781L252.189 29.6985H255.592V33.3976H256.234ZM252.288 33.3976H254.754V30.389H252.83L252.781 31.2275C252.781 32.1153 252.682 33.0524 252.288 33.3976Z" fill="white"/>
<path d="M263.533 32.2139H262.694V34.0881H261.905V32.2139H261.017L259.784 34.0881H258.847L260.376 31.8193L258.995 29.6985H259.834L261.017 31.5727H261.856V29.6985H262.645V31.5727H263.484L264.667 29.6985H265.506L264.125 31.8193L265.654 34.0881H264.717L263.533 32.2139Z" fill="white"/>
<path d="M272.115 32.1646H268.564C268.662 32.9537 269.304 33.447 270.142 33.447C270.635 33.447 271.079 33.2497 271.424 32.9044L271.868 33.3976C271.474 33.8415 270.882 34.0881 270.142 34.0881C268.712 34.0881 267.775 33.151 267.775 31.8193C267.775 30.537 268.712 29.5999 269.994 29.5999C271.277 29.5999 272.164 30.4876 272.164 31.8687C272.115 31.9673 272.115 32.0659 272.115 32.1646ZM268.514 31.5727H271.326C271.227 30.8329 270.685 30.2904 269.895 30.2904C269.156 30.2904 268.613 30.8329 268.514 31.5727Z" fill="white"/>
<path d="M275.321 29.6984H276.11V32.9044L278.823 29.6984H279.562V34.0881H278.773V30.8822L276.11 34.0881H275.321V29.6984ZM276.11 27.9722H276.652C276.652 28.3667 276.948 28.6627 277.392 28.6627C277.836 28.6627 278.132 28.4161 278.132 27.9722H278.675C278.675 28.712 278.181 29.1066 277.343 29.1066C276.603 29.1066 276.11 28.712 276.11 27.9722Z" fill="white"/>
<path d="M59.8831 19.7849L61.6587 17.0229C63.237 18.2066 64.9633 18.7984 66.3443 18.7984C67.5773 18.7984 68.1199 18.3546 68.1199 17.6147C68.1199 16.7269 66.6895 16.3817 65.0619 15.8885C62.9904 15.2966 60.6229 14.3102 60.6229 11.4002C60.6229 8.39154 63.0397 6.7146 66.0483 6.7146C67.9226 6.7146 69.9941 7.35578 71.5724 8.44086L69.9941 11.3509C68.5144 10.5124 67.0841 9.96984 65.999 9.96984C64.9633 9.96984 64.47 10.4137 64.47 11.0549C64.47 11.8934 65.9004 12.288 67.4787 12.8305C69.5502 13.521 71.967 14.5074 71.967 17.2695C71.967 20.574 69.5009 22.0537 66.295 22.0537C64.1248 22.0537 61.8067 21.3632 59.8831 19.7849Z" fill="white"/>
<path d="M73.6932 7.40511L77.8856 6.96121V9.08205C78.872 7.849 80.1051 6.7146 82.2259 6.7146C84.1495 6.7146 85.6291 7.55307 86.4183 9.08205C87.7006 7.55307 89.2789 6.7146 91.3011 6.7146C94.4084 6.7146 96.2826 8.58883 96.2826 12.14V21.7578H92.0903V13.521C92.0903 11.5481 91.2025 10.5124 89.6242 10.5124C88.0459 10.5124 87.0595 11.5481 87.0595 13.521V21.7578H82.8671V13.521C82.8671 11.5481 81.9793 10.5124 80.401 10.5124C78.8227 10.5124 77.8363 11.5481 77.8363 13.521V21.7578H73.6439V7.40511H73.6932Z" fill="white"/>
<path d="M97.6146 14.4088C97.6146 10.1671 101.018 6.7146 105.654 6.7146C110.241 6.7146 113.644 10.1178 113.644 14.4088C113.644 18.6505 110.241 22.103 105.605 22.103C101.018 22.103 97.6146 18.6998 97.6146 14.4088ZM109.501 14.4088C109.501 12.2386 107.923 10.3151 105.605 10.3151C103.188 10.3151 101.758 12.1893 101.758 14.4088C101.758 16.579 103.336 18.5025 105.654 18.5025C108.071 18.5025 109.501 16.6283 109.501 14.4088Z" fill="white"/>
<path d="M114.975 2.52232L119.168 1.58521V21.7578H114.975V2.52232Z" fill="white"/>
<path d="M120.648 14.4088C120.648 10.1671 123.903 6.7146 128.391 6.7146C131.203 6.7146 132.879 7.75036 134.26 9.32866L131.794 11.7947C130.907 10.9563 130.019 10.3151 128.342 10.3151C126.221 10.3151 124.741 12.1893 124.741 14.4088C124.741 16.6776 126.221 18.5025 128.49 18.5025C129.92 18.5025 130.857 17.9107 131.893 16.9242L134.359 19.3903C132.929 20.9686 131.252 22.103 128.293 22.103C123.903 22.103 120.648 18.6505 120.648 14.4088Z" fill="white"/>
<path d="M134.803 14.4088C134.803 10.1671 138.206 6.7146 142.843 6.7146C147.43 6.7146 150.833 10.1178 150.833 14.4088C150.833 18.6505 147.43 22.103 142.793 22.103C138.206 22.103 134.803 18.6998 134.803 14.4088ZM146.69 14.4088C146.69 12.2386 145.111 10.3151 142.793 10.3151C140.377 10.3151 138.946 12.1893 138.946 14.4088C138.946 16.579 140.525 18.5025 142.843 18.5025C145.259 18.5025 146.69 16.6283 146.69 14.4088Z" fill="white"/>
<path d="M152.46 7.40511L156.653 6.96121V9.08205C157.639 7.849 158.872 6.7146 160.993 6.7146C164.15 6.7146 166.024 8.83544 166.024 12.1893V21.7578H161.831V13.521C161.831 11.5481 160.894 10.5124 159.267 10.5124C157.688 10.5124 156.653 11.5481 156.653 13.521V21.7578H152.46V7.40511Z" fill="white"/>
<path d="M167.355 19.7849L169.131 17.0229C170.709 18.2066 172.436 18.7984 173.817 18.7984C175.05 18.7984 175.592 18.3546 175.592 17.6147C175.592 16.7269 174.162 16.3817 172.534 15.8885C170.463 15.2966 168.095 14.3102 168.095 11.4002C168.095 8.39154 170.512 6.7146 173.521 6.7146C175.395 6.7146 177.466 7.35578 179.045 8.44086L177.466 11.3509C175.987 10.5124 174.556 9.96984 173.471 9.96984C172.436 9.96984 171.942 10.4137 171.942 11.0549C171.942 11.8934 173.373 12.288 174.951 12.8305C177.022 13.521 179.439 14.5074 179.439 17.2695C179.439 20.574 176.973 22.0537 173.767 22.0537C171.646 22.0537 169.328 21.3632 167.355 19.7849Z" fill="white"/>
<path d="M181.214 17.5654V3.55796L185.407 2.62085V6.96117H188.909V10.5617H185.407V16.8749C185.407 17.8613 185.801 18.3052 186.739 18.3052C187.528 18.3052 188.218 18.1079 188.81 17.7627V21.1165C187.922 21.6591 186.886 21.955 185.505 21.955C182.941 22.0043 181.214 21.0179 181.214 17.5654Z" fill="white"/>
<path d="M191.622 7.40512L195.814 6.96122V9.92053C196.653 7.89833 198.034 6.56665 200.549 6.66529V11.0549H200.352C197.541 11.0549 195.864 12.7319 195.864 16.283V21.7578H191.671V7.40512H191.622Z" fill="white"/>
<path d="M202.768 16.5299V6.96143H206.961V15.1982C206.961 17.171 207.898 18.2068 209.526 18.2068C211.104 18.2068 212.14 17.171 212.14 15.1982V6.96143H216.332V21.758H212.14V19.6371C211.153 20.8702 209.92 22.0046 207.799 22.0046C204.643 22.0539 202.768 19.9331 202.768 16.5299Z" fill="white"/>
<path d="M217.91 14.5074C217.91 10.2658 221.165 6.81323 225.654 6.81323C228.465 6.81323 230.142 7.84899 231.523 9.42729L229.057 11.8934C228.169 11.0549 227.281 10.4137 225.604 10.4137C223.483 10.4137 222.004 12.288 222.004 14.5074C222.004 16.7762 223.483 18.6011 225.752 18.6011C227.183 18.6011 228.12 18.0093 229.155 17.0229L231.622 19.4889C230.191 21.0672 228.514 22.2016 225.555 22.2016C221.165 22.2016 217.91 18.7984 217.91 14.5074Z" fill="white"/>
<path d="M233.496 17.7133V3.6566L237.688 2.71948V7.10913H241.19V10.7096H237.688V17.0228C237.688 18.0092 238.083 18.4531 239.02 18.4531C239.809 18.4531 240.5 18.2559 241.091 17.9106V21.2645C240.204 21.807 239.168 22.103 237.787 22.103C235.222 22.1523 233.496 21.1165 233.496 17.7133Z" fill="white"/>
<path d="M244.002 7.55302L248.194 7.10913V21.9057H244.002V7.55302Z" fill="white"/>
<path d="M244.002 2.71948H248.194V5.58015H244.002V2.71948Z" fill="white"/>
<path d="M249.673 14.5074C249.673 10.2658 253.077 6.81323 257.713 6.81323C262.3 6.81323 265.703 10.2164 265.703 14.5074C265.703 18.7491 262.3 22.2016 257.664 22.2016C253.077 22.2016 249.673 18.8478 249.673 14.5074ZM261.56 14.5074C261.56 12.3373 259.982 10.4137 257.664 10.4137C255.247 10.4137 253.816 12.288 253.816 14.5074C253.816 16.6776 255.395 18.6011 257.713 18.6011C260.08 18.6011 261.56 16.7762 261.56 14.5074Z" fill="white"/>
<path d="M267.035 7.55305L271.227 7.10916V9.22999C272.213 7.99695 273.446 6.86255 275.567 6.86255C278.724 6.86255 280.598 8.98339 280.598 12.3373V21.9057H276.406V13.6196C276.406 11.6468 275.469 10.611 273.841 10.611C272.263 10.611 271.227 11.6468 271.227 13.6196V21.8564H267.035V7.55305Z" fill="white"/>
<path d="M33.4471 14.9513H25.5063C24.4705 14.9513 23.4841 14.4088 22.9415 13.5703L14.6061 0.5H20.9193C22.9415 0.5 24.8651 1.53576 25.9502 3.26202L33.4471 14.9513Z" fill="white"/>
<path d="M48.0465 14.9513H40.1057C39.0699 14.9513 38.0835 14.4088 37.5409 13.5703L29.7481 1.43711C29.5508 1.09186 28.8603 0.697282 28.4164 0.549316H35.5187C37.5409 0.549316 39.4645 1.58507 40.5496 3.31134L48.0465 14.9513Z" fill="white"/>
<path d="M48.0465 26.0981H40.1057C39.0699 26.0981 38.0835 26.6407 37.5409 27.4792L29.7481 39.6123C29.5508 39.9576 28.8603 40.3522 28.4164 40.5001H35.5187C37.5409 40.5001 39.4645 39.4644 40.5496 37.7381L48.0465 26.0981Z" fill="white"/>
<path d="M0.5 26.0981H8.44082C9.47657 26.0981 10.463 26.6407 11.0055 27.4792L19.3409 40.5001H13.0277C11.0055 40.5001 9.082 39.4644 7.99692 37.7381L0.5 26.0981Z" fill="white"/>
<path d="M30.7833 30.2411L28.0706 34.4827L25.9991 37.738C24.914 39.4642 22.9905 40.5 20.9683 40.5H13.4714C14.2112 40.3027 14.7537 40.0561 15.1976 39.5629L21.6588 29.4519L15.6909 25.3582L8.04597 20.1301L4.59344 17.7626C4.4948 17.7133 4.39616 17.6147 4.29751 17.5654C2.27532 15.9377 1.7821 13.0771 3.16311 10.8576L7.99665 3.26202C9.08173 1.53576 11.0053 0.5 13.0275 0.5H19.3407L12.5836 11.0549L12.2383 11.5974L29.353 23.336C31.6218 24.865 32.263 27.9229 30.7833 30.2411Z" fill="white"/>
<path d="M30.7839 30.2412L27.8245 34.8775C27.9232 34.3842 27.9232 33.7431 27.2327 33.2498L21.7086 29.452L15.7407 25.3583L8.04649 20.1302L4.59396 17.7628C4.49532 17.7135 4.39668 17.6148 4.29803 17.5655L11.3017 10.3645L12.6334 11.1043L12.2882 11.6469L29.4028 23.3855C31.6223 24.8651 32.2635 27.9231 30.7839 30.2412Z" fill="white"/>
<path d="M7.70099 19.2916C7.70099 19.5875 7.79963 19.9328 7.99692 20.0808L4.54439 17.7133C2.27559 16.1843 1.6344 13.0771 3.16338 10.7589L7.99692 3.26202C9.082 1.53576 11.0055 0.5 13.0277 0.5H19.8342C19.4396 0.647965 19.1437 0.894574 18.897 1.1905L12.2386 11.5481L8.09556 18.0586C7.84895 18.4531 7.70099 18.8477 7.70099 19.2916Z" fill="white"/>
</svg>
