<svg width="478" height="69" viewBox="0 0 478 69" fill="none" xmlns="http://www.w3.org/2000/svg">
<path d="M104.312 53.5223C104.312 51.2501 105.995 49.7354 108.267 49.7354C109.613 49.7354 110.707 50.3244 111.296 51.3343L110.286 52.0075C109.782 51.2501 109.108 50.9135 108.267 50.9135C106.836 50.9135 105.658 51.9234 105.658 53.5223C105.658 55.1212 106.752 56.131 108.267 56.131C109.108 56.131 109.782 55.7944 110.286 55.037L111.296 55.7103C110.707 56.7201 109.613 57.3092 108.267 57.3092C105.995 57.3934 104.312 55.7944 104.312 53.5223Z" fill="#22B573"/>
<path d="M121.984 50.9974H119.207V57.3089H117.861V50.9974H115.083V49.8192H121.9V50.9974H121.984Z" fill="#22B573"/>
<path d="M134.523 53.5223C134.523 55.7944 132.924 57.3934 130.736 57.3934C129.642 57.3934 128.716 56.9726 128.127 56.2152V60.0863H126.781V49.8195H128.043V50.9977C128.632 50.1561 129.642 49.7354 130.736 49.7354C132.924 49.7354 134.523 51.2501 134.523 53.5223ZM133.176 53.5223C133.176 51.9234 132.082 50.9135 130.652 50.9135C129.221 50.9135 128.127 51.9234 128.127 53.5223C128.127 55.1212 129.221 56.131 130.652 56.131C132.082 56.2152 133.176 55.1212 133.176 53.5223Z" fill="#22B573"/>
<path d="M139.235 53.5223C139.235 51.2501 140.918 49.7354 143.106 49.7354C145.294 49.7354 146.978 51.3343 146.978 53.5223C146.978 55.7944 145.379 57.3934 143.106 57.3934C140.834 57.3934 139.235 55.7944 139.235 53.5223ZM145.631 53.5223C145.631 51.9234 144.537 50.9135 143.106 50.9135C141.676 50.9135 140.582 51.9234 140.582 53.5223C140.582 55.1212 141.676 56.131 143.106 56.131C144.537 56.131 145.631 55.1212 145.631 53.5223Z" fill="#22B573"/>
<path d="M152.447 49.8192H153.794V55.2892L158.422 49.8192H159.685V57.3089H158.338V51.8389L153.794 57.3089H152.531V49.8192H152.447Z" fill="#22B573"/>
<path d="M171.214 50.9974H168.521V57.3089H167.175V50.9974H164.397V49.8192H171.214V50.9974Z" fill="#22B573"/>
<path d="M182.407 54.0266H176.347C176.516 55.3731 177.61 56.2146 179.04 56.2146C179.882 56.2146 180.639 55.878 181.228 55.2889L181.986 56.1305C181.313 56.8879 180.303 57.3086 179.04 57.3086C176.6 57.3086 175.001 55.7097 175.001 53.4376C175.001 51.2496 176.6 49.6506 178.788 49.6506C180.976 49.6506 182.491 51.1654 182.491 53.5217C182.491 53.69 182.491 53.8583 182.407 54.0266ZM176.347 53.0168H181.144C180.976 51.7545 180.05 50.8288 178.704 50.8288C177.441 50.8288 176.516 51.7545 176.347 53.0168Z" fill="#22B573"/>
<path d="M194.272 49.8195V57.3092H192.926V50.9977H189.728L189.644 52.6807C189.475 55.2895 189.139 57.3934 187.456 57.3934C187.203 57.3934 186.951 57.3092 186.614 57.225L186.698 56.0469C186.867 56.0469 186.951 56.131 187.035 56.131C188.213 56.131 188.297 54.2797 188.381 52.5124L188.55 49.7354H194.272V49.8195Z" fill="#22B573"/>
<path d="M206.727 54.7843C206.727 56.3832 205.633 57.3089 203.613 57.3089H200.331V49.8192H201.678V52.3438H203.781C205.717 52.3438 206.727 53.2695 206.727 54.7843ZM205.38 54.7843C205.38 53.7744 204.791 53.3537 203.529 53.3537H201.762V56.2991H203.529C204.707 56.2991 205.38 55.7941 205.38 54.7843Z" fill="#22B573"/>
<path d="M211.187 53.5223C211.187 51.2501 212.87 49.7354 215.142 49.7354C216.489 49.7354 217.583 50.3244 218.172 51.3343L217.162 52.0075C216.657 51.2501 215.984 50.9135 215.142 50.9135C213.712 50.9135 212.533 51.9234 212.533 53.5223C212.533 55.1212 213.627 56.131 215.142 56.131C215.984 56.131 216.657 55.7944 217.162 55.037L218.172 55.7103C217.583 56.7201 216.489 57.3092 215.142 57.3092C212.87 57.3934 211.187 55.7944 211.187 53.5223Z" fill="#22B573"/>
<path d="M228.859 50.9974H226.082V57.3089H224.736V50.9974H221.958V49.8192H228.775V50.9974H228.859Z" fill="#22B573"/>
<path d="M240.22 55.2051C240.22 56.4674 239.295 57.3089 237.275 57.3089H233.656V49.8192H237.107C238.874 49.8192 239.968 50.4924 239.968 51.7548C239.968 52.5963 239.547 53.1012 238.79 53.4378C239.799 53.6903 240.22 54.2794 240.22 55.2051ZM235.003 53.0171H237.022C238.032 53.0171 238.621 52.5963 238.621 51.9231C238.621 51.1657 238.032 50.8291 237.022 50.8291H235.003V53.0171ZM238.874 55.1209C238.874 54.3635 238.369 53.9428 237.275 53.9428H235.003V56.2149H237.191C238.285 56.2149 238.874 55.8783 238.874 55.1209Z" fill="#22B573"/>
<path d="M245.101 53.5223C245.101 51.2501 246.784 49.7354 248.972 49.7354C251.16 49.7354 252.843 51.3343 252.843 53.5223C252.843 55.7944 251.244 57.3934 248.972 57.3934C246.7 57.3934 245.101 55.7944 245.101 53.5223ZM251.497 53.5223C251.497 51.9234 250.403 50.9135 248.972 50.9135C247.542 50.9135 246.448 51.9234 246.448 53.5223C246.448 55.1212 247.542 56.131 248.972 56.131C250.403 56.131 251.497 55.1212 251.497 53.5223Z" fill="#22B573"/>
<path d="M280.277 56.1308V59.0761H279.015V57.3089H272.788V59.0761H271.525V56.1308H271.946C273.04 56.0466 273.208 54.2794 273.293 52.3438L273.377 49.8192H279.183V56.1308H280.277ZM273.629 56.1308H277.837V50.9974H274.555L274.471 52.428C274.471 53.9428 274.302 55.5417 273.629 56.1308Z" fill="#22B573"/>
<path d="M284.822 53.5223C284.822 51.2501 286.505 49.7354 288.693 49.7354C290.881 49.7354 292.564 51.3343 292.564 53.5223C292.564 55.7944 290.965 57.3934 288.693 57.3934C286.421 57.3934 284.822 55.7944 284.822 53.5223ZM291.217 53.5223C291.217 51.9234 290.123 50.9135 288.693 50.9135C287.262 50.9135 286.168 51.9234 286.168 53.5223C286.168 55.1212 287.262 56.131 288.693 56.131C290.123 56.131 291.217 55.1212 291.217 53.5223Z" fill="#22B573"/>
<path d="M306.618 49.8192V57.3089H305.355V51.8389L302.578 56.4674H301.989L299.212 51.8389V57.3089H297.95V49.8192H299.38L302.326 54.8684L305.355 49.8192H306.618Z" fill="#22B573"/>
<path d="M312.003 53.5223C312.003 51.2501 313.687 49.7354 315.875 49.7354C318.063 49.7354 319.746 51.3343 319.746 53.5223C319.746 55.7944 318.147 57.3934 315.875 57.3934C313.602 57.3934 312.003 55.7944 312.003 53.5223ZM318.399 53.5223C318.399 51.9234 317.305 50.9135 315.875 50.9135C314.444 50.9135 313.35 51.9234 313.35 53.5223C313.35 55.1212 314.444 56.131 315.875 56.131C317.305 56.131 318.399 55.1212 318.399 53.5223Z" fill="#22B573"/>
<path d="M331.695 55.2051C331.695 56.4674 330.77 57.3089 328.75 57.3089H325.131V49.8192H328.582C330.349 49.8192 331.443 50.4924 331.443 51.7548C331.443 52.5963 331.022 53.1012 330.265 53.4378C331.275 53.6903 331.695 54.2794 331.695 55.2051ZM326.478 53.0171H328.498C329.507 53.0171 330.096 52.5963 330.096 51.9231C330.096 51.1657 329.507 50.8291 328.498 50.8291H326.478V53.0171ZM330.349 55.1209C330.349 54.3635 329.844 53.9428 328.75 53.9428H326.478V56.2149H328.666C329.76 56.2149 330.349 55.8783 330.349 55.1209Z" fill="#22B573"/>
<path d="M348.358 49.8192H349.704V55.2892L354.333 49.8192H355.595V57.3089H354.249V51.8389L349.704 57.3089H348.442V49.8192H348.358Z" fill="#22B573"/>
<path d="M375.035 54.1111H373.52V57.3089H372.173V49.8192H373.52V53.0171H375.119L377.559 49.8192H378.99L376.129 53.4378L379.158 57.3089H377.559L375.035 54.1111Z" fill="#22B573"/>
<path d="M383.113 53.5223C383.113 51.2501 384.796 49.7354 386.984 49.7354C389.172 49.7354 390.855 51.3343 390.855 53.5223C390.855 55.7944 389.256 57.3934 386.984 57.3934C384.712 57.3934 383.113 55.7944 383.113 53.5223ZM389.509 53.5223C389.509 51.9234 388.415 50.9135 386.984 50.9135C385.554 50.9135 384.46 51.9234 384.46 53.5223C384.46 55.1212 385.554 56.131 386.984 56.131C388.415 56.131 389.509 55.1212 389.509 53.5223Z" fill="#22B573"/>
<path d="M401.543 50.9974H398.766V57.3089H397.42V50.9974H394.643V49.8192H401.459V50.9974H401.543Z" fill="#22B573"/>
<path d="M412.062 50.9974H409.285V57.3089H407.939V50.9974H405.162V49.8192H411.978V50.9974H412.062Z" fill="#22B573"/>
<path d="M423.339 54.0266H417.28C417.448 55.3731 418.542 56.2146 419.973 56.2146C420.815 56.2146 421.572 55.878 422.161 55.2889L422.918 56.1305C422.245 56.8879 421.235 57.3086 419.973 57.3086C417.533 57.3086 415.934 55.7097 415.934 53.4376C415.934 51.2496 417.533 49.6506 419.721 49.6506C421.909 49.6506 423.423 51.1654 423.423 53.5217C423.339 53.69 423.339 53.8583 423.339 54.0266ZM417.196 53.0168H421.993C421.824 51.7545 420.899 50.8288 419.552 50.8288C418.29 50.8288 417.364 51.7545 417.196 53.0168Z" fill="#22B573"/>
<path d="M436.383 56.1308V59.0761H435.121V57.3089H428.893V59.0761H427.631V56.1308H428.052C429.146 56.0466 429.314 54.2794 429.398 52.3438L429.482 49.8192H435.289V56.1308H436.383ZM429.651 56.1308H433.858V50.9974H430.576L430.492 52.428C430.492 53.9428 430.324 55.5417 429.651 56.1308Z" fill="#22B573"/>
<path d="M448.837 54.1111H447.407V57.3089H446.06V54.1111H444.546L442.442 57.3089H440.843L443.452 53.4378L441.095 49.8192H442.526L444.546 53.0171H445.976V49.8192H447.323V53.0171H448.753L450.773 49.8192H452.204L449.847 53.4378L452.456 57.3089H450.857L448.837 54.1111Z" fill="#22B573"/>
<path d="M463.48 54.0266H457.421C457.589 55.3731 458.683 56.2146 460.114 56.2146C460.956 56.2146 461.713 55.878 462.302 55.2889L463.059 56.1305C462.386 56.8879 461.376 57.3086 460.114 57.3086C457.674 57.3086 456.075 55.7097 456.075 53.4376C456.075 51.2496 457.674 49.6506 459.862 49.6506C462.05 49.6506 463.564 51.1654 463.564 53.5217C463.48 53.69 463.48 53.8583 463.48 54.0266ZM457.337 53.0168H462.134C461.965 51.7545 461.04 50.8288 459.693 50.8288C458.431 50.8288 457.505 51.7545 457.337 53.0168Z" fill="#22B573"/>
<path d="M468.95 49.8192H470.297V55.2892L474.925 49.8192H476.188V57.3089H474.841V51.8389L470.297 57.3089H468.95V49.8192ZM470.297 46.8738H471.223C471.223 47.547 471.728 48.0519 472.485 48.0519C473.242 48.0519 473.747 47.6312 473.747 46.8738H474.673C474.673 48.1361 473.831 48.8093 472.401 48.8093C471.138 48.8093 470.297 48.1361 470.297 46.8738Z" fill="#22B573"/>
<path d="M101.366 32.9047L104.396 28.192C107.089 30.2117 110.034 31.2216 112.39 31.2216C114.494 31.2216 115.42 30.4642 115.42 29.2019C115.42 27.6871 112.979 27.098 110.202 26.2565C106.668 25.2467 102.629 23.5636 102.629 18.5985C102.629 13.4651 106.752 10.6039 111.885 10.6039C115.083 10.6039 118.618 11.6979 121.311 13.5493L118.618 18.5143C116.093 17.0837 113.653 16.158 111.801 16.158C110.034 16.158 109.193 16.9154 109.193 18.0094C109.193 19.44 111.633 20.1133 114.326 21.039C117.86 22.2171 121.984 23.9002 121.984 28.6128C121.984 34.2511 117.776 36.7757 112.306 36.7757C108.603 36.7757 104.648 35.5976 101.366 32.9047Z" fill="#333333"/>
<path d="M124.929 11.782L132.082 11.0247V14.6433C133.766 12.5394 135.869 10.6039 139.488 10.6039C142.77 10.6039 145.295 12.0345 146.641 14.6433C148.829 12.0345 151.522 10.6039 154.972 10.6039C160.274 10.6039 163.472 13.8017 163.472 19.8608V36.2708H156.319V22.2171C156.319 18.851 154.804 17.0837 152.111 17.0837C149.418 17.0837 147.735 18.851 147.735 22.2171V36.2708H140.582V22.2171C140.582 18.851 139.067 17.0837 136.374 17.0837C133.681 17.0837 131.998 18.851 131.998 22.2171V36.2708H124.845V11.782H124.929Z" fill="#333333"/>
<path d="M165.744 23.7319C165.744 16.4947 171.55 10.6039 179.461 10.6039C187.287 10.6039 193.094 16.4105 193.094 23.7319C193.094 30.9691 187.287 36.8599 179.377 36.8599C171.55 36.8599 165.744 31.0533 165.744 23.7319ZM186.025 23.7319C186.025 20.0291 183.332 16.7471 179.377 16.7471C175.253 16.7471 172.813 19.945 172.813 23.7319C172.813 27.4347 175.506 30.7167 179.461 30.7167C183.584 30.7167 186.025 27.5188 186.025 23.7319Z" fill="#333333"/>
<path d="M195.366 3.45049L202.519 1.85156V36.2705H195.366V3.45049Z" fill="#333333"/>
<path d="M205.043 23.7319C205.043 16.4947 210.598 10.6039 218.256 10.6039C223.052 10.6039 225.914 12.3711 228.27 15.064L224.062 19.2717C222.547 17.8411 221.033 16.7471 218.171 16.7471C214.553 16.7471 212.028 19.945 212.028 23.7319C212.028 27.603 214.553 30.7167 218.424 30.7167C220.864 30.7167 222.463 29.7068 224.231 28.0237L228.438 32.2314C225.998 34.9244 223.137 36.8599 218.087 36.8599C210.598 36.8599 205.043 30.9691 205.043 23.7319Z" fill="#333333"/>
<path d="M229.196 23.7319C229.196 16.4947 235.002 10.6039 242.913 10.6039C250.739 10.6039 256.546 16.4105 256.546 23.7319C256.546 30.9691 250.739 36.8599 242.829 36.8599C235.002 36.8599 229.196 31.0533 229.196 23.7319ZM249.477 23.7319C249.477 20.0291 246.784 16.7471 242.829 16.7471C238.705 16.7471 236.265 19.945 236.265 23.7319C236.265 27.4347 238.958 30.7167 242.913 30.7167C247.036 30.7167 249.477 27.5188 249.477 23.7319Z" fill="#333333"/>
<path d="M259.323 11.782L266.476 11.0247V14.6433C268.159 12.5394 270.263 10.6039 273.881 10.6039C279.267 10.6039 282.465 14.2225 282.465 19.945V36.2708H275.312V22.2171C275.312 18.851 273.713 17.0837 270.936 17.0837C268.243 17.0837 266.476 18.851 266.476 22.2171V36.2708H259.323V11.782Z" fill="#333333"/>
<path d="M284.737 32.9047L287.767 28.192C290.46 30.2117 293.405 31.2216 295.761 31.2216C297.865 31.2216 298.791 30.4642 298.791 29.2019C298.791 27.6871 296.351 27.098 293.573 26.2565C290.039 25.2467 286 23.5636 286 18.5985C286 13.4651 290.123 10.6039 295.257 10.6039C298.454 10.6039 301.989 11.6979 304.682 13.5493L301.989 18.5143C299.464 17.0837 297.024 16.158 295.172 16.158C293.405 16.158 292.564 16.9154 292.564 18.0094C292.564 19.44 295.004 20.1133 297.697 21.039C301.231 22.2171 305.355 23.9002 305.355 28.6128C305.355 34.2511 301.147 36.7757 295.677 36.7757C292.059 36.7757 288.103 35.5976 284.737 32.9047Z" fill="#333333"/>
<path d="M308.385 29.117V5.21733L315.538 3.61841V11.024H321.513V17.1672H315.538V27.9389C315.538 29.622 316.211 30.3793 317.81 30.3793C319.156 30.3793 320.335 30.0427 321.344 29.4537V35.1761C319.83 36.1018 318.062 36.6067 315.706 36.6067C311.33 36.6909 308.385 35.0078 308.385 29.117Z" fill="#333333"/>
<path d="M326.141 11.7821L333.294 11.0247V16.0739C334.725 12.6236 337.081 10.3514 341.373 10.5197V18.0094H341.036C336.24 18.0094 333.378 20.8707 333.378 26.9298V36.2708H326.225V11.7821H326.141Z" fill="#333333"/>
<path d="M345.16 27.3505V11.0247H352.313V25.0784C352.313 28.4445 353.912 30.2118 356.689 30.2118C359.382 30.2118 361.149 28.4445 361.149 25.0784V11.0247H368.302V36.2708H361.149V32.6522C359.466 34.7561 357.362 36.6916 353.744 36.6916C348.358 36.7758 345.16 33.1571 345.16 27.3505Z" fill="#333333"/>
<path d="M370.995 23.8995C370.995 16.6623 376.549 10.7715 384.207 10.7715C389.004 10.7715 391.865 12.5387 394.222 15.2316L390.014 19.4393C388.499 18.0087 386.984 16.9147 384.123 16.9147C380.505 16.9147 377.98 20.1126 377.98 23.8995C377.98 27.7706 380.505 30.8843 384.376 30.8843C386.816 30.8843 388.415 29.8744 390.182 28.1913L394.39 32.399C391.949 35.092 389.088 37.0275 384.039 37.0275C376.549 37.0275 370.995 31.2209 370.995 23.8995Z" fill="#333333"/>
<path d="M397.588 29.3697V5.38579L404.741 3.78687V11.2766H410.716V17.4198H404.741V28.1915C404.741 29.8746 405.414 30.632 407.013 30.632C408.36 30.632 409.538 30.2953 410.548 29.7063V35.4287C409.033 36.3544 407.266 36.8593 404.909 36.8593C400.533 36.9435 397.588 35.1763 397.588 29.3697Z" fill="#333333"/>
<path d="M415.513 12.0344L422.666 11.277V36.5231H415.513V12.0344Z" fill="#333333"/>
<path d="M415.513 3.78687H422.666V8.66779H415.513V3.78687Z" fill="#333333"/>
<path d="M425.19 23.8995C425.19 16.6623 430.997 10.7715 438.908 10.7715C446.734 10.7715 452.54 16.5781 452.54 23.8995C452.54 31.1367 446.734 37.0275 438.823 37.0275C430.997 37.0275 425.19 31.305 425.19 23.8995ZM445.471 23.8995C445.471 20.1967 442.779 16.9147 438.823 16.9147C434.7 16.9147 432.259 20.1126 432.259 23.8995C432.259 27.6023 434.952 30.8843 438.908 30.8843C442.947 30.8843 445.471 27.7706 445.471 23.8995Z" fill="#333333"/>
<path d="M454.812 12.0344L461.966 11.277V14.8956C463.649 12.7917 465.752 10.8562 469.371 10.8562C474.757 10.8562 477.955 14.4748 477.955 20.1973V36.5231H470.802V22.3853C470.802 19.0191 469.203 17.2519 466.426 17.2519C463.733 17.2519 461.966 19.0191 461.966 22.3853V36.439H454.812V12.0344Z" fill="#333333"/>
<path d="M56.2596 24.6571H42.7108C40.9436 24.6571 39.2605 23.7314 38.3348 22.3008L24.1128 0H34.8845C38.3348 0 41.6168 1.76723 43.4682 4.71262L56.2596 24.6571Z" fill="url(#paint0_linear)"/>
<path d="M81.1695 24.6568H67.6207C65.8535 24.6568 64.1704 23.7311 63.2447 22.3005L49.9484 1.59863C49.6118 1.00955 48.4337 0.336324 47.6763 0.0838623H59.7944C63.2447 0.0838623 66.5267 1.85109 68.3781 4.79648L81.1695 24.6568Z" fill="url(#paint1_linear)"/>
<path d="M81.1695 43.6761H67.6207C65.8535 43.6761 64.1704 44.6018 63.2447 46.0325L49.9484 66.7343C49.6118 67.3234 48.4337 67.9966 47.6763 68.2491H59.7944C63.2447 68.2491 66.5267 66.4818 68.3781 63.5365L81.1695 43.6761Z" fill="url(#paint2_linear)"/>
<path d="M0.0449219 43.6761H13.5937C15.3609 43.6761 17.044 44.6018 17.9697 46.0325L32.1917 68.2491H21.42C17.9697 68.2491 14.6877 66.4818 12.8363 63.5365L0.0449219 43.6761Z" fill="url(#paint3_linear)"/>
<path d="M51.7153 50.7448L47.0868 57.982L43.5524 63.5362C41.701 66.4816 38.419 68.2488 34.9687 68.2488H22.1773C23.4396 67.9122 24.3653 67.4914 25.1226 66.6499L36.1468 49.3983L25.9642 42.4136L12.9203 33.4932L7.02956 29.4539C6.86125 29.3697 6.69295 29.2014 6.52464 29.1172C3.07433 26.3402 2.23279 21.4592 4.5891 17.6723L12.8362 4.71262C14.6876 1.76723 17.9696 0 21.4199 0H32.1916L20.6625 18.0089L20.0734 18.9346L49.2748 38.9632C53.1459 41.572 54.2399 46.7896 51.7153 50.7448Z" fill="url(#paint4_linear)"/>
<path d="M51.7155 50.7448L46.6663 58.6553C46.8346 57.8138 46.8346 56.7198 45.6565 55.8782L36.2312 49.3984L26.0486 42.4136L12.9206 33.4933L7.02982 29.4539C6.86152 29.3697 6.69321 29.2014 6.5249 29.1173L18.4748 16.8308L20.7469 18.0931L20.1578 19.0188L49.3592 39.0474C53.1462 41.5721 54.2402 46.7896 51.7155 50.7448Z" fill="url(#paint5_linear)"/>
<path d="M12.3315 32.0626C12.3315 32.5676 12.4998 33.1566 12.8365 33.4091L6.94569 29.3697C3.07461 26.7609 1.98061 21.4592 4.58938 17.504L12.8365 4.71262C14.6878 1.76723 17.9698 0 21.4202 0H33.0334C32.3602 0.252462 31.8552 0.673229 31.4345 1.17815L20.0737 18.8505L13.0048 29.9588C12.584 30.632 12.3315 31.3053 12.3315 32.0626Z" fill="url(#paint6_linear)"/>
<defs>
<linearGradient id="paint0_linear" x1="32.1524" y1="-1.44652" x2="48.3101" y2="26.3592" gradientUnits="userSpaceOnUse">
<stop offset="0.00558659" stop-color="#4D4D4D"/>
<stop offset="1" stop-color="#1A1A1A"/>
</linearGradient>
<linearGradient id="paint1_linear" x1="79.134" y1="25.0805" x2="50.3588" y2="-0.224984" gradientUnits="userSpaceOnUse">
<stop stop-color="#22917B"/>
<stop offset="1" stop-color="#22B573"/>
</linearGradient>
<linearGradient id="paint2_linear" x1="54.5173" y1="67.6968" x2="76.1052" y2="43.1817" gradientUnits="userSpaceOnUse">
<stop stop-color="#22917B"/>
<stop offset="1" stop-color="#22B573"/>
</linearGradient>
<linearGradient id="paint3_linear" x1="8.23301" y1="41.562" x2="23.6891" y2="69.7638" gradientUnits="userSpaceOnUse">
<stop offset="0.00558659" stop-color="#4D4D4D"/>
<stop offset="1" stop-color="#1A1A1A"/>
</linearGradient>
<linearGradient id="paint4_linear" x1="11.0758" y1="72.0413" x2="31.8106" y2="26.0289" gradientUnits="userSpaceOnUse">
<stop stop-color="#4D4D4D"/>
<stop offset="0.8929" stop-color="#1A1A1A"/>
</linearGradient>
<linearGradient id="paint5_linear" x1="42.6772" y1="45.3124" x2="13.459" y2="22.8812" gradientUnits="userSpaceOnUse">
<stop stop-color="#4D4D4D"/>
<stop offset="0.2669" stop-color="#484848"/>
<stop offset="0.5665" stop-color="#3B3B3B"/>
<stop offset="0.8809" stop-color="#252525"/>
<stop offset="1" stop-color="#1A1A1A"/>
</linearGradient>
<linearGradient id="paint6_linear" x1="8.33625" y1="26.3079" x2="23.3874" y2="1.15998" gradientUnits="userSpaceOnUse">
<stop offset="0.00558659" stop-color="#4D4D4D"/>
<stop offset="1" stop-color="#1A1A1A"/>
</linearGradient>
</defs>
</svg>
