<svg width="19" height="15" viewBox="0 0 19 15" fill="none" xmlns="http://www.w3.org/2000/svg">
<path d="M18.4805 1.88018C18.4805 1.39616 18.2882 0.93196 17.9459 0.589706C17.6037 0.247452 17.1395 0.0551758 16.6555 0.0551758H2.05547C1.57145 0.0551758 1.10725 0.247452 0.764999 0.589706C0.422745 0.93196 0.230469 1.39616 0.230469 1.88018V12.8302C0.230469 13.3142 0.422745 13.7784 0.764999 14.1206C1.10725 14.4629 1.57145 14.6552 2.05547 14.6552H16.6555C17.1395 14.6552 17.6037 14.4629 17.9459 14.1206C18.2882 13.7784 18.4805 13.3142 18.4805 12.8302V1.88018ZM14.0092 1.88018L9.35547 5.60318L4.70172 1.88018H14.0092ZM15.743 12.8302H2.96797V3.99718L8.63459 8.55968C8.79514 8.68849 8.99452 8.75923 9.20034 8.76043H9.51972C9.72555 8.75923 9.92492 8.68849 10.0855 8.55968L15.743 3.99718V12.8302Z" fill="url(#paint0_linear)"/>
<defs>
<linearGradient id="paint0_linear" x1="3.95805" y1="14.327" x2="16.8777" y2="0.872037" gradientUnits="userSpaceOnUse">
<stop stop-color="#22917B"/>
<stop offset="1" stop-color="#22B573"/>
</linearGradient>
</defs>
</svg>
