<svg width="21" height="20" viewBox="0 0 21 20" fill="none" xmlns="http://www.w3.org/2000/svg">
<path fill-rule="evenodd" clip-rule="evenodd" d="M7.81029 5.26404C7.62366 4.81708 7.48214 4.80009 7.1994 4.78866C7.10315 4.7831 6.99593 4.77753 6.87697 4.77753C6.50911 4.77753 6.12456 4.88506 5.89251 5.12268C5.60978 5.41128 4.9082 6.08458 4.9082 7.46516C4.9082 8.8459 5.91507 10.1812 6.05087 10.3682C6.19239 10.5546 8.01392 13.4292 10.8423 14.6007C13.0541 15.5174 13.7104 15.4324 14.2138 15.325C14.9492 15.1667 15.8712 14.6232 16.1033 13.967C16.3352 13.3105 16.3352 12.7503 16.2672 12.6315C16.1994 12.5127 16.0126 12.445 15.7299 12.3034C15.4471 12.1619 14.0724 11.4828 13.8122 11.3923C13.5576 11.2962 13.3144 11.3302 13.1222 11.6018C12.8506 11.9809 12.5849 12.3658 12.3698 12.5977C12.2002 12.7788 11.9229 12.8015 11.691 12.7052C11.3798 12.5753 10.5087 12.2694 9.43391 11.3132C8.60225 10.5721 8.03663 9.64989 7.8727 9.37257C7.70863 9.08968 7.85571 8.92546 7.9858 8.77281C8.12731 8.5973 8.26297 8.47293 8.40433 8.3087C8.54585 8.14463 8.62496 8.05981 8.71549 7.86731C8.81174 7.68067 8.74377 7.48817 8.67594 7.34665C8.60796 7.20484 8.04234 5.8241 7.81029 5.26404ZM10.4971 0.375C5.19106 0.375 0.875 4.69226 0.875 9.99985C0.875 12.1047 1.55386 14.0569 2.70781 15.6413L1.50845 19.2174L5.20805 18.0351C6.72971 19.0422 8.54552 19.625 10.5029 19.625C15.8089 19.625 20.125 15.3074 20.125 10.0002C20.125 4.69256 15.8089 0.375301 10.5029 0.375301H10.4973V0.375H10.4971Z" fill="white"/>
</svg>
