<svg width="74" height="80" class="client-img" viewBox="0 0 74 80" fill="none" xmlns="http://www.w3.org/2000/svg">
<g clip-path="url(#clip0)">
<path d="M40.2564 9.58975C51.9323 16.5154 55.7503 31.5653 48.8247 43.2413C46.4273 47.2812 43.0089 50.3889 39.1465 52.431C47.404 52.2979 55.3952 48.0359 59.9235 40.4C66.8491 28.724 63.0311 13.6741 51.3552 6.70407C43.7192 2.17577 34.6626 2.26455 27.3818 6.08254C31.7326 6.08254 36.2165 7.14802 40.2564 9.58975Z" fill="#A0A0A0"/>
<path d="M12.2012 45.4167C13.3555 49.4567 15.2645 53.1414 17.795 56.3823C19.6152 57.7141 21.613 58.8684 23.6995 59.8007C20.7251 56.2491 18.4165 52.076 17.1291 47.5033C15.3533 41.2436 15.3089 34.8951 16.7739 28.9905C15.7528 26.0604 15.0869 22.9528 14.9093 19.7119C10.7806 27.2591 9.62629 36.4045 12.2012 45.4167Z" fill="#A0A0A0"/>
<path d="M18.2861 47.1473C19.7512 52.3859 22.5925 57.0474 26.2773 60.8654C29.7845 62.1085 33.6025 62.7744 37.5536 62.7744C49.7623 62.7744 60.4615 56.2927 66.4105 46.6146C61.2606 49.7666 55.1785 51.6312 48.6968 51.6312C34.7123 51.6312 22.6813 43.1518 17.5314 31.0319C16.5547 36.2261 16.7767 41.6867 18.2861 47.1473Z" fill="#A0A0A0"/>
<path d="M14.8663 17.3141C14.9551 10.9656 16.7753 5.01665 19.8829 0C10.1604 5.94895 3.67871 16.6482 3.67871 28.8568C3.67871 38.5794 7.76306 47.3252 14.3335 53.4961C12.9129 51.0544 11.7586 48.4795 11.0039 45.727C8.16262 35.7381 9.71645 25.5272 14.8663 17.3141Z" fill="#A0A0A0"/>
<path d="M27.6968 13.0966C27.6968 13.0966 19.3062 35.6493 41.7257 43.5072C50.294 21.3984 27.6968 13.0966 27.6968 13.0966Z" fill="#A0A0A0"/>
<path d="M2.48118 79.5118C1.85965 79.1566 1.3713 78.7127 1.01614 78.0911C0.660979 77.4696 0.483398 76.8037 0.483398 76.049C0.483398 75.2942 0.660979 74.5839 1.01614 74.0068C1.3713 73.3853 1.85965 72.9413 2.52557 72.5861C3.14711 72.231 3.85743 72.0534 4.65654 72.0534C5.27807 72.0534 5.85521 72.1866 6.38795 72.4086C6.92069 72.6305 7.36464 72.9413 7.7198 73.3853L6.7875 74.2732C6.21037 73.6516 5.54444 73.3853 4.70093 73.3853C4.16819 73.3853 3.67985 73.5184 3.28029 73.7404C2.88073 73.9624 2.52557 74.3176 2.3036 74.7171C2.08162 75.1167 1.94844 75.605 1.94844 76.1378C1.94844 76.6705 2.08162 77.1144 2.3036 77.5584C2.52557 77.958 2.88073 78.3131 3.28029 78.5351C3.72424 78.7571 4.16819 78.8902 4.70093 78.8902C5.50005 78.8902 6.21037 78.5795 6.7875 77.958L7.7198 78.8459C7.36464 79.2898 6.92069 79.6006 6.38795 79.8225C5.85521 80.0445 5.27807 80.1777 4.65654 80.1777C3.81303 80.0001 3.10271 79.8226 2.48118 79.5118Z" fill="#A0A0A0"/>
<path d="M12.6037 79.5118C11.9822 79.1566 11.4494 78.6683 11.0943 78.0911C10.7391 77.4696 10.5615 76.8037 10.5615 76.049C10.5615 75.2942 10.7391 74.6283 11.0943 74.0068C11.4494 73.3853 11.9378 72.8969 12.6037 72.5861C13.2252 72.231 13.9356 72.0534 14.7347 72.0534C15.5338 72.0534 16.2441 72.231 16.8656 72.5861C17.4872 72.9413 18.0199 73.3853 18.3751 74.0068C18.7302 74.6283 18.9078 75.2942 18.9078 76.049C18.9078 76.8037 18.7302 77.514 18.3751 78.0911C18.0199 78.7127 17.5316 79.1566 16.8656 79.5118C16.2441 79.8669 15.5338 80.0445 14.7347 80.0445C13.9356 80.0001 13.2252 79.8225 12.6037 79.5118ZM16.1553 78.4019C16.5549 78.1799 16.91 77.8248 17.132 77.4252C17.354 77.0256 17.4872 76.5373 17.4872 76.0046C17.4872 75.4718 17.354 75.0279 17.132 74.5839C16.91 74.1844 16.5549 73.8292 16.1553 73.6072C15.7558 73.3853 15.2674 73.2521 14.7347 73.2521C14.2019 73.2521 13.758 73.3853 13.314 73.6072C12.8701 73.8292 12.5593 74.1844 12.3373 74.5839C12.1154 74.9835 11.9822 75.4718 11.9822 76.0046C11.9822 76.5373 12.1154 76.9812 12.3373 77.4252C12.5593 77.8248 12.9145 78.1799 13.314 78.4019C13.7136 78.6239 14.2019 78.7571 14.7347 78.7571C15.2674 78.7571 15.7114 78.6239 16.1553 78.4019Z" fill="#A0A0A0"/>
<path d="M29.8317 79.9114V74.7616L27.2567 79.0235H26.5908L24.0159 74.806V79.9114H22.6396V72.1423H23.8383L26.946 77.2921L29.9648 72.1423H31.1635V79.9114H29.8317Z" fill="#A0A0A0"/>
<path d="M40.4376 72.4528C40.926 72.6748 41.3255 72.9855 41.5919 73.4295C41.8583 73.829 41.9914 74.3174 41.9914 74.8945C41.9914 75.4717 41.8583 75.96 41.5919 76.3596C41.3255 76.7591 40.926 77.1143 40.4376 77.3363C39.9493 77.5582 39.3721 77.6914 38.6618 77.6914H36.9304V79.9112H35.5098V72.142H38.7062C39.3721 72.142 39.9493 72.2308 40.4376 72.4528ZM40.0381 76.0488C40.3488 75.7824 40.5264 75.3829 40.5264 74.8945C40.5264 74.4062 40.3488 74.0066 40.0381 73.7403C39.7273 73.4739 39.239 73.3407 38.6174 73.3407H36.9304V76.4484H38.6174C39.239 76.4484 39.7273 76.3152 40.0381 76.0488Z" fill="#A0A0A0"/>
<path d="M50.295 78.0907H46.3882L45.6335 79.8665H44.124L47.6312 72.0974H49.0519L52.5591 79.8665H51.0497L50.295 78.0907ZM49.851 76.9808L48.386 73.5624L46.9209 76.9808H49.851Z" fill="#A0A0A0"/>
<path d="M62.7293 72.1423V79.9114H61.5307L57.2244 74.6728V79.9114H55.8037V72.1423H57.0024L61.3087 77.4253V72.1423H62.7293Z" fill="#A0A0A0"/>
<path d="M70.3623 77.1587V79.9112H68.8972V77.2031L65.834 72.142H67.3878L69.652 75.9156L71.9605 72.142H73.3811L70.3623 77.1587Z" fill="#A0A0A0"/>
</g>
<defs>
<clipPath id="clip0">
<rect width="72.9856" height="80" fill="white" transform="translate(0.436523)"/>
</clipPath>
</defs>
</svg>
