<svg width="23" height="23" viewBox="0 0 23 23" fill="none" xmlns="http://www.w3.org/2000/svg">
<path d="M16.0638 0.280273H6.39714C4.79479 0.280273 3.25806 0.916804 2.12503 2.04984C0.992 3.18287 0.355469 4.71959 0.355469 6.32194V15.9886C0.355469 17.591 0.992 19.1277 2.12503 20.2607C3.25806 21.3937 4.79479 22.0303 6.39714 22.0303H16.0638C17.6662 22.0303 19.2029 21.3937 20.3359 20.2607C21.4689 19.1277 22.1055 17.591 22.1055 15.9886V6.32194C22.1055 4.71959 21.4689 3.18287 20.3359 2.04984C19.2029 0.916804 17.6662 0.280273 16.0638 0.280273ZM19.9909 15.9886C19.9877 17.0292 19.5729 18.0262 18.8371 18.762C18.1014 19.4977 17.1043 19.9125 16.0638 19.9157H6.39714C5.35659 19.9125 4.35957 19.4977 3.62379 18.762C2.88801 18.0262 2.47324 17.0292 2.47005 15.9886V6.32194C2.47324 5.28139 2.88801 4.28438 3.62379 3.54859C4.35957 2.81281 5.35659 2.39804 6.39714 2.39486H16.0638C17.1043 2.39804 18.1014 2.81281 18.8371 3.54859C19.5729 4.28438 19.9877 5.28139 19.9909 6.32194V15.9886ZM18.1784 5.41569C18.1784 5.65468 18.1075 5.88829 17.9747 6.087C17.842 6.28571 17.6533 6.44059 17.4325 6.53204C17.2117 6.6235 16.9687 6.64743 16.7343 6.60081C16.4999 6.55418 16.2846 6.4391 16.1156 6.27011C15.9466 6.10112 15.8316 5.88582 15.7849 5.65142C15.7383 5.41703 15.7622 5.17408 15.8537 4.95328C15.9452 4.73249 16.1 4.54377 16.2987 4.411C16.4974 4.27822 16.7311 4.20736 16.9701 4.20736C17.2905 4.20736 17.5979 4.33466 17.8245 4.56127C18.0511 4.78788 18.1784 5.09522 18.1784 5.41569ZM11.2305 5.71777C10.155 5.71777 9.10375 6.03668 8.20956 6.63416C7.31536 7.23164 6.61843 8.08086 6.20687 9.07443C5.79532 10.068 5.68764 11.1613 5.89745 12.2161C6.10726 13.2708 6.62513 14.2397 7.38558 15.0002C8.14602 15.7606 9.11489 16.2785 10.1697 16.4883C11.2244 16.6981 12.3177 16.5904 13.3113 16.1789C14.3049 15.7673 15.1541 15.0704 15.7516 14.1762C16.3491 13.282 16.668 12.2307 16.668 11.1553C16.6696 10.4408 16.53 9.73298 16.2573 9.07255C15.9846 8.41212 15.5842 7.81206 15.0789 7.30683C14.5737 6.80159 13.9736 6.40113 13.3132 6.12843C12.6528 5.85574 11.945 5.71618 11.2305 5.71777ZM11.2305 14.4782C10.5733 14.4782 9.93081 14.2833 9.38436 13.9182C8.8379 13.5531 8.412 13.0341 8.16049 12.4269C7.90899 11.8197 7.84319 11.1516 7.9714 10.507C8.09962 9.86242 8.41609 9.27034 8.88081 8.80562C9.34553 8.3409 9.93762 8.02442 10.5822 7.89621C11.2268 7.76799 11.8949 7.8338 12.5021 8.0853C13.1093 8.3368 13.6282 8.76271 13.9934 9.30916C14.3585 9.85561 14.5534 10.4981 14.5534 11.1553C14.5534 12.0366 14.2033 12.8818 13.5801 13.5049C12.957 14.1281 12.1118 14.4782 11.2305 14.4782Z" fill="url(#paint0_linear)"/>
<defs>
<linearGradient id="paint0_linear" x1="4.79793" y1="21.5414" x2="23.744" y2="5.75652" gradientUnits="userSpaceOnUse">
<stop stop-color="#22917B"/>
<stop offset="1" stop-color="#22B573"/>
</linearGradient>
</defs>
</svg>
