<svg width="282" height="41" viewBox="0 0 282 41" fill="none" xmlns="http://www.w3.org/2000/svg">
<path d="M62.0742 31.9938C62.0742 30.6621 63.0607 29.7743 64.3923 29.7743C65.1815 29.7743 65.8227 30.1195 66.1679 30.7114L65.5761 31.106C65.2801 30.6621 64.8856 30.4648 64.3923 30.4648C63.5539 30.4648 62.8634 31.0567 62.8634 31.9938C62.8634 32.9309 63.5046 33.5228 64.3923 33.5228C64.8856 33.5228 65.2801 33.3255 65.5761 32.8816L66.1679 33.2761C65.8227 33.868 65.1815 34.2133 64.3923 34.2133C63.0607 34.2626 62.0742 33.3255 62.0742 31.9938Z" fill="#22917B"/>
<path d="M72.4311 30.5141H70.8035V34.2133H70.0143V30.5141H68.3867V29.8236H72.3818V30.5141H72.4311Z" fill="#22917B"/>
<path d="M79.7798 31.9938C79.7798 33.3255 78.8427 34.2626 77.5603 34.2626C76.9191 34.2626 76.3766 34.016 76.0313 33.5721V35.8409H75.2422V29.8236H75.982V30.5141C76.3273 30.0209 76.9191 29.7743 77.5603 29.7743C78.8427 29.7743 79.7798 30.6621 79.7798 31.9938ZM78.9906 31.9938C78.9906 31.0567 78.3495 30.4648 77.511 30.4648C76.6725 30.4648 76.0313 31.0567 76.0313 31.9938C76.0313 32.9309 76.6725 33.5227 77.511 33.5227C78.3495 33.5721 78.9906 32.9309 78.9906 31.9938Z" fill="#22917B"/>
<path d="M82.543 31.9938C82.543 30.6621 83.5294 29.7743 84.8118 29.7743C86.0941 29.7743 87.0806 30.7114 87.0806 31.9938C87.0806 33.3255 86.1435 34.2626 84.8118 34.2626C83.4801 34.2626 82.543 33.3255 82.543 31.9938ZM86.2914 31.9938C86.2914 31.0567 85.6502 30.4648 84.8118 30.4648C83.9733 30.4648 83.3321 31.0567 83.3321 31.9938C83.3321 32.9309 83.9733 33.5228 84.8118 33.5228C85.6502 33.5228 86.2914 32.9309 86.2914 31.9938Z" fill="#22917B"/>
<path d="M90.2871 29.8236H91.0763V33.0295L93.789 29.8236H94.5288V34.2133H93.7396V31.0073L91.0763 34.2133H90.3364V29.8236H90.2871Z" fill="#22917B"/>
<path d="M101.286 30.5141H99.7078V34.2133H98.9186V30.5141H97.291V29.8236H101.286V30.5141Z" fill="#22917B"/>
<path d="M107.844 32.2897H104.293C104.392 33.0789 105.033 33.5721 105.871 33.5721C106.365 33.5721 106.808 33.3748 107.154 33.0295L107.598 33.5228C107.203 33.9667 106.611 34.2133 105.871 34.2133C104.441 34.2133 103.504 33.2761 103.504 31.9445C103.504 30.6621 104.441 29.725 105.723 29.725C107.006 29.725 107.894 30.6128 107.894 31.9938C107.894 32.0924 107.894 32.1911 107.844 32.2897ZM104.293 31.6978H107.104C107.006 30.958 106.463 30.4155 105.674 30.4155C104.934 30.4155 104.392 30.958 104.293 31.6978Z" fill="#22917B"/>
<path d="M114.799 29.8236V34.2133H114.01V30.5141H112.135L112.086 31.5006C111.987 33.0295 111.79 34.2626 110.804 34.2626C110.656 34.2626 110.508 34.2133 110.311 34.1639L110.36 33.4734C110.459 33.4734 110.508 33.5228 110.557 33.5228C111.248 33.5228 111.297 32.4377 111.346 31.4019L111.445 29.7743H114.799V29.8236Z" fill="#22917B"/>
<path d="M122.098 32.7336C122.098 33.6707 121.457 34.2133 120.273 34.2133H118.35V29.8236H119.139V31.3033H120.372C121.506 31.3033 122.098 31.8458 122.098 32.7336ZM121.309 32.7336C121.309 32.1417 120.964 31.8951 120.224 31.8951H119.188V33.6214H120.224C120.914 33.6214 121.309 33.3255 121.309 32.7336Z" fill="#22917B"/>
<path d="M124.713 31.9938C124.713 30.6621 125.699 29.7743 127.031 29.7743C127.82 29.7743 128.461 30.1195 128.807 30.7114L128.215 31.106C127.919 30.6621 127.524 30.4648 127.031 30.4648C126.193 30.4648 125.502 31.0567 125.502 31.9938C125.502 32.9309 126.143 33.5228 127.031 33.5228C127.524 33.5228 127.919 33.3255 128.215 32.8816L128.807 33.2761C128.461 33.868 127.82 34.2133 127.031 34.2133C125.699 34.2626 124.713 33.3255 124.713 31.9938Z" fill="#22917B"/>
<path d="M135.07 30.5141H133.442V34.2133H132.653V30.5141H131.025V29.8236H135.02V30.5141H135.07Z" fill="#22917B"/>
<path d="M141.73 32.9802C141.73 33.72 141.187 34.2133 140.004 34.2133H137.883V29.8236H139.905C140.941 29.8236 141.582 30.2182 141.582 30.958C141.582 31.4512 141.335 31.7472 140.891 31.9444C141.483 32.0924 141.73 32.4377 141.73 32.9802ZM138.672 31.6978H139.856C140.448 31.6978 140.793 31.4512 140.793 31.0567C140.793 30.6128 140.448 30.4155 139.856 30.4155H138.672V31.6978ZM140.941 32.9309C140.941 32.487 140.645 32.2404 140.004 32.2404H138.672V33.5721H139.954C140.596 33.5721 140.941 33.3748 140.941 32.9309Z" fill="#22917B"/>
<path d="M144.59 31.9938C144.59 30.6621 145.576 29.7743 146.859 29.7743C148.141 29.7743 149.127 30.7114 149.127 31.9938C149.127 33.3255 148.19 34.2626 146.859 34.2626C145.527 34.2626 144.59 33.3255 144.59 31.9938ZM148.338 31.9938C148.338 31.0567 147.697 30.4648 146.859 30.4648C146.02 30.4648 145.379 31.0567 145.379 31.9938C145.379 32.9309 146.02 33.5228 146.859 33.5228C147.697 33.5228 148.338 32.9309 148.338 31.9938Z" fill="#22917B"/>
<path d="M165.206 33.5227V35.249H164.466V34.2133H160.816V35.249H160.076V33.5227H160.323C160.964 33.4734 161.063 32.4377 161.112 31.3033L161.161 29.8236H164.564V33.5227H165.206ZM161.309 33.5227H163.775V30.5141H161.852L161.802 31.3526C161.802 32.2404 161.704 33.1775 161.309 33.5227Z" fill="#22917B"/>
<path d="M167.869 31.9938C167.869 30.6621 168.856 29.7743 170.138 29.7743C171.42 29.7743 172.407 30.7114 172.407 31.9938C172.407 33.3255 171.47 34.2626 170.138 34.2626C168.806 34.2626 167.869 33.3255 167.869 31.9938ZM171.618 31.9938C171.618 31.0567 170.976 30.4648 170.138 30.4648C169.299 30.4648 168.658 31.0567 168.658 31.9938C168.658 32.9309 169.299 33.5228 170.138 33.5228C170.976 33.5228 171.618 32.9309 171.618 31.9938Z" fill="#22917B"/>
<path d="M180.645 29.8236V34.2133H179.905V31.0073L178.277 33.72H177.932L176.304 31.0073V34.2133H175.564V29.8236H176.403L178.129 32.7829L179.905 29.8236H180.645Z" fill="#22917B"/>
<path d="M183.801 31.9938C183.801 30.6621 184.787 29.7743 186.07 29.7743C187.352 29.7743 188.338 30.7114 188.338 31.9938C188.338 33.3255 187.401 34.2626 186.07 34.2626C184.738 34.2626 183.801 33.3255 183.801 31.9938ZM187.549 31.9938C187.549 31.0567 186.908 30.4648 186.07 30.4648C185.231 30.4648 184.59 31.0567 184.59 31.9938C184.59 32.9309 185.231 33.5228 186.07 33.5228C186.908 33.5228 187.549 32.9309 187.549 31.9938Z" fill="#22917B"/>
<path d="M195.341 32.9802C195.341 33.72 194.799 34.2133 193.615 34.2133H191.494V29.8236H193.516C194.552 29.8236 195.193 30.2182 195.193 30.958C195.193 31.4512 194.947 31.7472 194.503 31.9444C195.095 32.0924 195.341 32.4377 195.341 32.9802ZM192.283 31.6978H193.467C194.059 31.6978 194.404 31.4512 194.404 31.0567C194.404 30.6128 194.059 30.4155 193.467 30.4155H192.283V31.6978ZM194.552 32.9309C194.552 32.487 194.256 32.2404 193.615 32.2404H192.283V33.5721H193.566C194.207 33.5721 194.552 33.3748 194.552 32.9309Z" fill="#22917B"/>
<path d="M205.107 29.8236H205.897V33.0295L208.609 29.8236H209.349V34.2133H208.56V31.0073L205.897 34.2133H205.157V29.8236H205.107Z" fill="#22917B"/>
<path d="M220.743 32.339H219.856V34.2133H219.066V29.8236H219.856V31.6978H220.793L222.223 29.8236H223.061L221.385 31.9444L223.16 34.2133H222.223L220.743 32.339Z" fill="#22917B"/>
<path d="M225.477 31.9938C225.477 30.6621 226.463 29.7743 227.745 29.7743C229.028 29.7743 230.014 30.7114 230.014 31.9938C230.014 33.3255 229.077 34.2626 227.745 34.2626C226.414 34.2626 225.477 33.3255 225.477 31.9938ZM229.225 31.9938C229.225 31.0567 228.584 30.4648 227.745 30.4648C226.907 30.4648 226.266 31.0567 226.266 31.9938C226.266 32.9309 226.907 33.5228 227.745 33.5228C228.584 33.5228 229.225 32.9309 229.225 31.9938Z" fill="#22917B"/>
<path d="M236.279 30.5141H234.651V34.2133H233.862V30.5141H232.234V29.8236H236.229V30.5141H236.279Z" fill="#22917B"/>
<path d="M242.445 30.5141H240.817V34.2133H240.028V30.5141H238.4V29.8236H242.395V30.5141H242.445Z" fill="#22917B"/>
<path d="M249.053 32.2897H245.502C245.601 33.0789 246.242 33.5721 247.08 33.5721C247.574 33.5721 248.017 33.3748 248.363 33.0295L248.807 33.5228C248.412 33.9667 247.82 34.2133 247.08 34.2133C245.65 34.2133 244.713 33.2761 244.713 31.9445C244.713 30.6621 245.65 29.725 246.932 29.725C248.215 29.725 249.103 30.6128 249.103 31.9938C249.053 32.0924 249.053 32.1911 249.053 32.2897ZM245.453 31.6978H248.264C248.165 30.958 247.623 30.4155 246.834 30.4155C246.094 30.4155 245.551 30.958 245.453 31.6978Z" fill="#22917B"/>
<path d="M256.698 33.5227V35.249H255.958V34.2133H252.308V35.249H251.568V33.5227H251.815C252.456 33.4734 252.555 32.4377 252.604 31.3033L252.653 29.8236H256.057V33.5227H256.698ZM252.752 33.5227H255.218V30.5141H253.295L253.245 31.3526C253.245 32.2404 253.147 33.1775 252.752 33.5227Z" fill="#22917B"/>
<path d="M263.998 32.339H263.16V34.2133H262.37V32.339H261.483L260.25 34.2133H259.312L260.841 31.9444L259.46 29.8236H260.299L261.483 31.6978H262.321V29.8236H263.11V31.6978H263.949L265.132 29.8236H265.971L264.59 31.9444L266.119 34.2133H265.182L263.998 32.339Z" fill="#22917B"/>
<path d="M272.581 32.2897H269.029C269.128 33.0789 269.769 33.5721 270.608 33.5721C271.101 33.5721 271.545 33.3748 271.89 33.0295L272.334 33.5228C271.939 33.9667 271.348 34.2133 270.608 34.2133C269.177 34.2133 268.24 33.2761 268.24 31.9445C268.24 30.6621 269.177 29.725 270.46 29.725C271.742 29.725 272.63 30.6128 272.63 31.9938C272.581 32.0924 272.581 32.1911 272.581 32.2897ZM268.98 31.6978H271.791C271.693 30.958 271.15 30.4155 270.361 30.4155C269.621 30.4155 269.079 30.958 268.98 31.6978Z" fill="#22917B"/>
<path d="M275.785 29.8236H276.574V33.0295L279.287 29.8236H280.027V34.2132H279.238V31.0073L276.574 34.2132H275.785V29.8236ZM276.574 28.0973H277.117C277.117 28.4919 277.413 28.7878 277.857 28.7878C278.301 28.7878 278.597 28.5412 278.597 28.0973H279.139C279.139 28.8371 278.646 29.2317 277.807 29.2317C277.068 29.2317 276.574 28.8371 276.574 28.0973Z" fill="#22917B"/>
<path d="M60.3477 19.9099L62.1232 17.1479C63.7015 18.3316 65.4278 18.9234 66.8088 18.9234C68.0419 18.9234 68.5844 18.4796 68.5844 17.7397C68.5844 16.8519 67.1541 16.5067 65.5264 16.0135C63.4549 15.4216 61.0875 14.4352 61.0875 11.5252C61.0875 8.51654 63.5043 6.8396 66.5129 6.8396C68.3871 6.8396 70.4586 7.48078 72.0369 8.56586L70.4586 11.4759C68.979 10.6374 67.5486 10.0948 66.4636 10.0948C65.4278 10.0948 64.9346 10.5387 64.9346 11.1799C64.9346 12.0184 66.3649 12.413 67.9432 12.9555C70.0147 13.646 72.4315 14.6324 72.4315 17.3945C72.4315 20.699 69.9654 22.1787 66.7595 22.1787C64.5893 22.1787 62.2712 21.4882 60.3477 19.9099Z" fill="#333333"/>
<path d="M74.1587 7.53011L78.351 7.08621V9.20705C79.3375 7.974 80.5705 6.8396 82.6914 6.8396C84.6149 6.8396 86.0946 7.67807 86.8837 9.20705C88.1661 7.67807 89.7444 6.8396 91.7666 6.8396C94.8739 6.8396 96.7481 8.71383 96.7481 12.265V21.8828H92.5557V13.646C92.5557 11.6731 91.6679 10.6374 90.0896 10.6374C88.5113 10.6374 87.5249 11.6731 87.5249 13.646V21.8828H83.3326V13.646C83.3326 11.6731 82.4448 10.6374 80.8665 10.6374C79.2882 10.6374 78.3017 11.6731 78.3017 13.646V21.8828H74.1094V7.53011H74.1587Z" fill="#333333"/>
<path d="M98.0801 14.5338C98.0801 10.2921 101.483 6.8396 106.12 6.8396C110.706 6.8396 114.11 10.2428 114.11 14.5338C114.11 18.7755 110.706 22.228 106.07 22.228C101.483 22.228 98.0801 18.8248 98.0801 14.5338ZM109.967 14.5338C109.967 12.3636 108.388 10.4401 106.07 10.4401C103.653 10.4401 102.223 12.3143 102.223 14.5338C102.223 16.704 103.801 18.6275 106.12 18.6275C108.536 18.6275 109.967 16.7533 109.967 14.5338Z" fill="#333333"/>
<path d="M115.439 2.6472L119.632 1.71008V21.8827H115.439V2.6472Z" fill="#333333"/>
<path d="M121.111 14.5338C121.111 10.2921 124.367 6.8396 128.855 6.8396C131.666 6.8396 133.343 7.87536 134.724 9.45366L132.258 11.9197C131.37 11.0813 130.482 10.4401 128.806 10.4401C126.685 10.4401 125.205 12.3143 125.205 14.5338C125.205 16.8026 126.685 18.6275 128.953 18.6275C130.384 18.6275 131.321 18.0357 132.357 17.0492L134.823 19.5153C133.392 21.0936 131.716 22.228 128.756 22.228C124.367 22.228 121.111 18.7755 121.111 14.5338Z" fill="#333333"/>
<path d="M135.268 14.5338C135.268 10.2921 138.671 6.8396 143.307 6.8396C147.894 6.8396 151.297 10.2428 151.297 14.5338C151.297 18.7755 147.894 22.228 143.258 22.228C138.671 22.228 135.268 18.8248 135.268 14.5338ZM147.154 14.5338C147.154 12.3636 145.576 10.4401 143.258 10.4401C140.841 10.4401 139.411 12.3143 139.411 14.5338C139.411 16.704 140.989 18.6275 143.307 18.6275C145.724 18.6275 147.154 16.7533 147.154 14.5338Z" fill="#333333"/>
<path d="M152.924 7.53011L157.116 7.08621V9.20705C158.103 7.974 159.336 6.8396 161.457 6.8396C164.613 6.8396 166.487 8.96044 166.487 12.3143V21.8828H162.295V13.646C162.295 11.6731 161.358 10.6374 159.73 10.6374C158.152 10.6374 157.116 11.6731 157.116 13.646V21.8828H152.924V7.53011Z" fill="#333333"/>
<path d="M167.82 19.9099L169.596 17.1479C171.174 18.3316 172.9 18.9234 174.281 18.9234C175.515 18.9234 176.057 18.4796 176.057 17.7397C176.057 16.8519 174.627 16.5067 172.999 16.0135C170.928 15.4216 168.56 14.4352 168.56 11.5252C168.56 8.51654 170.977 6.8396 173.986 6.8396C175.86 6.8396 177.931 7.48078 179.51 8.56586L177.931 11.4759C176.452 10.6374 175.021 10.0948 173.936 10.0948C172.9 10.0948 172.407 10.5387 172.407 11.1799C172.407 12.0184 173.838 12.413 175.416 12.9555C177.487 13.646 179.904 14.6324 179.904 17.3945C179.904 20.699 177.438 22.1787 174.232 22.1787C172.111 22.1787 169.793 21.4882 167.82 19.9099Z" fill="#333333"/>
<path d="M181.68 17.6904V3.68296L185.872 2.74585V7.08617H189.374V10.6867H185.872V16.9999C185.872 17.9863 186.267 18.4302 187.204 18.4302C187.993 18.4302 188.683 18.2329 189.275 17.8877V21.2415C188.387 21.7841 187.352 22.08 185.971 22.08C183.406 22.1293 181.68 21.1429 181.68 17.6904Z" fill="#333333"/>
<path d="M192.086 7.52999L196.278 7.0861V10.0454C197.117 8.02321 198.498 6.69152 201.013 6.79017V11.1798H200.816C198.005 11.1798 196.328 12.8568 196.328 16.4079V21.8826H192.135V7.52999H192.086Z" fill="#333333"/>
<path d="M203.232 16.6547V7.0863H207.425V15.323C207.425 17.2959 208.362 18.3317 209.99 18.3317C211.568 18.3317 212.604 17.2959 212.604 15.323V7.0863H216.796V21.8829H212.604V19.762C211.617 20.9951 210.384 22.1295 208.263 22.1295C205.107 22.1788 203.232 20.0579 203.232 16.6547Z" fill="#333333"/>
<path d="M218.375 14.6323C218.375 10.3906 221.63 6.93811 226.119 6.93811C228.93 6.93811 230.607 7.97387 231.988 9.55217L229.522 12.0183C228.634 11.1798 227.746 10.5386 226.069 10.5386C223.948 10.5386 222.469 12.4128 222.469 14.6323C222.469 16.9011 223.948 18.726 226.217 18.726C227.648 18.726 228.585 18.1342 229.62 17.1477L232.086 19.6138C230.656 21.1921 228.979 22.3265 226.02 22.3265C221.63 22.3265 218.375 18.9233 218.375 14.6323Z" fill="#333333"/>
<path d="M233.961 17.8383V3.7816L238.153 2.84448V7.23413H241.655V10.8346H238.153V17.1478C238.153 18.1342 238.548 18.5781 239.485 18.5781C240.274 18.5781 240.965 18.3809 241.556 18.0356V21.3895C240.669 21.932 239.633 22.228 238.252 22.228C235.687 22.2773 233.961 21.2415 233.961 17.8383Z" fill="#333333"/>
<path d="M244.467 7.6779L248.659 7.23401V22.0306H244.467V7.6779Z" fill="#333333"/>
<path d="M244.467 2.84448H248.659V5.70515H244.467V2.84448Z" fill="#333333"/>
<path d="M250.139 14.6323C250.139 10.3906 253.542 6.93811 258.178 6.93811C262.765 6.93811 266.168 10.3413 266.168 14.6323C266.168 18.874 262.765 22.3265 258.129 22.3265C253.542 22.3265 250.139 18.9726 250.139 14.6323ZM262.025 14.6323C262.025 12.4622 260.447 10.5386 258.129 10.5386C255.712 10.5386 254.282 12.4128 254.282 14.6323C254.282 16.8025 255.86 18.726 258.178 18.726C260.546 18.726 262.025 16.9011 262.025 14.6323Z" fill="#333333"/>
<path d="M267.5 7.67793L271.692 7.23404V9.35487C272.679 8.12183 273.912 6.98743 276.033 6.98743C279.189 6.98743 281.064 9.10826 281.064 12.4621V22.0306H276.871V13.7445C276.871 11.7716 275.934 10.7359 274.306 10.7359C272.728 10.7359 271.692 11.7716 271.692 13.7445V21.9813H267.5V7.67793Z" fill="#333333"/>
<path d="M33.9112 15.0763H25.9704C24.9347 15.0763 23.9482 14.5338 23.4057 13.6953L15.0703 0.625H21.3835C23.4057 0.625 25.3293 1.66076 26.4143 3.38702L33.9112 15.0763Z" fill="url(#paint0_linear)"/>
<path d="M48.5109 15.0763H40.5701C39.5344 15.0763 38.5479 14.5338 38.0054 13.6953L30.2125 1.56211C30.0153 1.21686 29.3248 0.822282 28.8809 0.674316H35.9832C38.0054 0.674316 39.9289 1.71007 41.014 3.43634L48.5109 15.0763Z" fill="url(#paint1_linear)"/>
<path d="M48.5109 26.2231H40.5701C39.5344 26.2231 38.5479 26.7657 38.0054 27.6042L30.2125 39.7373C30.0153 40.0826 29.3248 40.4772 28.8809 40.6251H35.9832C38.0054 40.6251 39.9289 39.5894 41.014 37.8631L48.5109 26.2231Z" fill="url(#paint2_linear)"/>
<path d="M0.964844 26.2231H8.90566C9.94142 26.2231 10.9279 26.7657 11.4704 27.6042L19.8058 40.6251H13.4926C11.4704 40.6251 9.54684 39.5894 8.46176 37.8631L0.964844 26.2231Z" fill="url(#paint3_linear)"/>
<path d="M31.2473 30.3661L28.5346 34.6077L26.4631 37.863C25.378 39.5892 23.4545 40.625 21.4323 40.625H13.9354C14.6752 40.4277 15.2177 40.1811 15.6616 39.6879L22.1228 29.5769L16.1548 25.4832L8.50996 20.2551L5.05743 17.8876C4.95879 17.8383 4.86015 17.7397 4.7615 17.6904C2.73931 16.0627 2.24609 13.2021 3.6271 10.9826L8.46064 3.38702C9.54572 1.66076 11.4693 0.625 13.4915 0.625H19.8047L13.0476 11.1799L12.7023 11.7224L29.817 23.461C32.0858 24.99 32.727 28.0479 31.2473 30.3661Z" fill="url(#paint4_linear)"/>
<path d="M31.2495 30.3661L28.2902 35.0023C28.3888 34.5091 28.3888 33.8679 27.6983 33.3747L22.1743 29.5769L16.2063 25.4832L8.51213 20.2551L5.0596 17.8877C4.96096 17.8383 4.86232 17.7397 4.76367 17.6904L11.7674 10.4894L13.0991 11.2292L12.7538 11.7717L29.8685 23.5103C32.088 24.99 32.7291 28.048 31.2495 30.3661Z" fill="url(#paint5_linear)"/>
<path d="M8.16589 19.4166C8.16589 19.7125 8.26454 20.0578 8.46182 20.2058L5.0093 17.8383C2.74049 16.3093 2.09931 13.2021 3.62829 10.8839L8.46182 3.38702C9.5469 1.66076 11.4705 0.625 13.4926 0.625H20.2991C19.9045 0.772965 19.6086 1.01957 19.3619 1.3155L12.7035 11.6731L8.56047 18.1836C8.31386 18.5781 8.16589 18.9727 8.16589 19.4166Z" fill="url(#paint6_linear)"/>
<defs>
<linearGradient id="paint0_linear" x1="19.7822" y1="-0.222793" x2="29.2521" y2="16.0739" gradientUnits="userSpaceOnUse">
<stop offset="0.00558659" stop-color="#4D4D4D"/>
<stop offset="1" stop-color="#1A1A1A"/>
</linearGradient>
<linearGradient id="paint1_linear" x1="47.3179" y1="15.3246" x2="30.4531" y2="0.493305" gradientUnits="userSpaceOnUse">
<stop stop-color="#22917B"/>
<stop offset="1" stop-color="#22B573"/>
</linearGradient>
<linearGradient id="paint2_linear" x1="32.8903" y1="40.3014" x2="45.5428" y2="25.9333" gradientUnits="userSpaceOnUse">
<stop stop-color="#22917B"/>
<stop offset="1" stop-color="#22B573"/>
</linearGradient>
<linearGradient id="paint3_linear" x1="5.76381" y1="24.9841" x2="14.8225" y2="41.5129" gradientUnits="userSpaceOnUse">
<stop offset="0.00558659" stop-color="#4D4D4D"/>
<stop offset="1" stop-color="#1A1A1A"/>
</linearGradient>
<linearGradient id="paint4_linear" x1="7.42888" y1="42.8477" x2="19.5814" y2="15.8803" gradientUnits="userSpaceOnUse">
<stop stop-color="#4D4D4D"/>
<stop offset="0.8929" stop-color="#1A1A1A"/>
</linearGradient>
<linearGradient id="paint5_linear" x1="25.9522" y1="27.1822" x2="8.82769" y2="14.0355" gradientUnits="userSpaceOnUse">
<stop stop-color="#4D4D4D"/>
<stop offset="0.2669" stop-color="#484848"/>
<stop offset="0.5665" stop-color="#3B3B3B"/>
<stop offset="0.8809" stop-color="#252525"/>
<stop offset="1" stop-color="#1A1A1A"/>
</linearGradient>
<linearGradient id="paint6_linear" x1="5.82429" y1="16.0438" x2="14.6456" y2="1.30485" gradientUnits="userSpaceOnUse">
<stop offset="0.00558659" stop-color="#4D4D4D"/>
<stop offset="1" stop-color="#1A1A1A"/>
</linearGradient>
</defs>
</svg>
