<svg width="79" height="80" viewBox="0 0 79 80" fill="none" xmlns="http://www.w3.org/2000/svg">
<g clip-path="url(#clip0)">
<path d="M7.20679 78.4848C7.42963 78.4848 7.56334 78.4848 7.74161 78.4402C7.87532 78.3957 8.00902 78.3511 8.14272 78.3065C8.23186 78.262 8.321 78.2174 8.41013 78.1283C8.49927 78.0837 8.54384 78.0391 8.58841 77.95C8.63298 77.9054 8.72211 77.8609 8.76668 77.8163C8.81125 77.7717 8.85582 77.7717 8.94495 77.7717C8.98952 77.7717 9.03409 77.7717 9.07866 77.8163C9.12323 77.8163 9.1678 77.8608 9.1678 77.9054L9.79175 78.6631C9.4352 79.0642 9.03409 79.3762 8.54384 79.599C8.05359 79.8219 7.51877 79.911 6.89481 79.911C6.40456 79.911 5.95888 79.8218 5.55777 79.6436C5.15665 79.4653 4.84467 79.1979 4.57727 78.8859C4.30986 78.5739 4.08701 78.2174 3.95331 77.7717C3.81961 77.326 3.73047 76.8803 3.73047 76.3901C3.73047 75.9444 3.77504 75.4987 3.86417 75.0976C3.95331 74.6965 4.13158 74.2954 4.30986 73.9388C4.48813 73.5823 4.71097 73.2703 4.97838 73.0029C5.24579 72.7355 5.5132 72.4681 5.86974 72.2898C6.18172 72.1115 6.53827 71.9333 6.89481 71.8441C7.25136 71.755 7.65247 71.6659 8.05359 71.6659C8.36557 71.6659 8.63298 71.7104 8.90039 71.755C9.1678 71.7996 9.39064 71.8887 9.56891 71.9778C9.74718 72.067 9.97002 72.2007 10.1037 72.3344C10.282 72.4681 10.4157 72.6464 10.5048 72.7801L9.88089 73.4932C9.83632 73.5377 9.79175 73.5823 9.74718 73.6269C9.70261 73.6714 9.61348 73.6714 9.52434 73.6714C9.47977 73.6714 9.39064 73.6714 9.34607 73.6269C9.3015 73.5823 9.25693 73.5823 9.1678 73.5377C9.12323 73.4932 9.03409 73.4486 8.98952 73.404C8.94495 73.3595 8.85582 73.3149 8.76668 73.2703C8.67754 73.2257 8.54384 73.1812 8.4547 73.1812C8.321 73.1366 8.18729 73.1366 8.00902 73.1366C7.65247 73.1366 7.3405 73.2258 7.07309 73.3595C6.76111 73.4932 6.53827 73.716 6.31543 73.9834C6.09259 74.2508 5.91431 74.5628 5.82518 74.9639C5.69147 75.365 5.6469 75.7661 5.6469 76.2564C5.6469 76.6129 5.69147 76.9249 5.78061 77.1923C5.86974 77.4597 5.95888 77.6826 6.13715 77.8608C6.27086 78.0391 6.44913 78.1728 6.67197 78.3065C6.76111 78.4402 6.93938 78.4848 7.20679 78.4848Z" fill="#C4C4C4"/>
<path d="M20.8463 75.3646C20.8463 75.8103 20.8017 76.2114 20.7126 76.6125C20.6235 77.0136 20.4898 77.3702 20.2669 77.7267C20.0887 78.0833 19.8658 78.3952 19.5984 78.6627C19.331 78.9301 19.019 79.1975 18.707 79.3758C18.3951 79.554 18.0385 79.7323 17.6374 79.8214C17.2363 79.9106 16.8352 79.9997 16.4341 79.9997C15.8992 79.9997 15.409 79.9106 15.0079 79.7323C14.6068 79.554 14.2502 79.2866 13.9382 78.9746C13.6263 78.6627 13.4034 78.2615 13.2697 77.8159C13.0914 77.3702 13.0469 76.9245 13.0469 76.3897C13.0469 75.944 13.0914 75.5429 13.1806 75.1418C13.2697 74.7407 13.4034 74.3841 13.6263 74.0276C13.8045 73.671 14.0274 73.359 14.2948 73.0916C14.5622 72.8242 14.8742 72.5568 15.1862 72.3785C15.4981 72.2003 15.8547 72.022 16.2558 71.9328C16.6569 71.8437 17.058 71.7546 17.4591 71.7546C17.994 71.7546 18.4396 71.8437 18.8853 72.022C19.2864 72.2003 19.643 72.4677 19.955 72.7796C20.2669 73.0916 20.4898 73.4927 20.6235 73.9384C20.7572 74.3841 20.8463 74.8744 20.8463 75.3646ZM18.9745 75.4092C18.9745 75.0972 18.9299 74.7852 18.8407 74.5178C18.7516 74.2504 18.6625 74.0276 18.4842 73.8047C18.3505 73.6264 18.1277 73.4482 17.9048 73.359C17.682 73.2699 17.4146 73.1808 17.1472 73.1808C16.7906 73.1808 16.4341 73.2699 16.1667 73.4036C15.8547 73.5373 15.6318 73.7602 15.409 74.0276C15.1862 74.295 15.0524 74.6515 14.9187 75.0081C14.8296 75.4092 14.7405 75.8103 14.7405 76.3005C14.7405 76.6125 14.785 76.9245 14.8742 77.1919C14.9633 77.4593 15.0524 77.6822 15.2307 77.8604C15.3644 78.0387 15.5873 78.217 15.7655 78.3061C15.9884 78.3952 16.2558 78.4844 16.5232 78.4844C16.8797 78.4844 17.2363 78.3952 17.5037 78.2615C17.8157 78.1278 18.0385 77.905 18.2614 77.6376C18.4842 77.3702 18.6179 77.0136 18.7516 76.6571C18.9299 76.3005 18.9745 75.8549 18.9745 75.4092Z" fill="#C4C4C4"/>
<path d="M28.335 77.0586C28.3796 76.9249 28.4687 76.8357 28.5133 76.702C28.5579 76.5683 28.647 76.4792 28.7361 76.3455L31.1874 72.1115C31.2765 71.9778 31.3657 71.8887 31.4548 71.8887C31.5439 71.8441 31.6776 71.8441 31.7668 71.8441H33.193L32.2125 79.8664H30.6526L31.232 75.1867C31.232 75.0976 31.2765 74.9639 31.2765 74.8747C31.3211 74.741 31.3211 74.6519 31.3657 74.5182L28.959 78.663C28.8698 78.7967 28.7807 78.8859 28.6916 78.9304C28.5579 78.975 28.4242 79.0196 28.2905 79.0196H28.0676C27.9339 79.0196 27.8002 78.975 27.7111 78.9304C27.6219 78.8859 27.5328 78.7967 27.4882 78.663L26.062 74.5182C26.062 74.6519 26.062 74.7856 26.062 74.8747C26.062 75.0084 26.062 75.0976 26.0175 75.1867L25.3935 79.9109H23.7891L24.7696 71.8887H26.1512C26.2403 71.8887 26.2849 71.8887 26.374 71.8887C26.4186 71.8887 26.5077 71.8887 26.5523 71.9332C26.5969 71.9332 26.6414 71.9778 26.686 72.0224C26.7306 72.0669 26.7306 72.1115 26.7751 72.2006L28.2013 76.4346C28.2459 76.6129 28.2905 76.8357 28.335 77.0586Z" fill="#C4C4C4"/>
<path d="M38.2744 77.1926L37.9624 79.9113H36.1797L37.1602 71.889H39.8343C40.3245 71.889 40.7257 71.9336 41.0822 72.0673C41.4387 72.201 41.7062 72.3347 41.929 72.5575C42.1518 72.7804 42.3301 73.0032 42.4192 73.2706C42.5084 73.538 42.553 73.85 42.553 74.162C42.553 74.6077 42.4638 75.0088 42.3301 75.3653C42.1964 75.7219 41.9736 76.0784 41.7062 76.3458C41.4387 76.6132 41.0822 76.8361 40.6365 76.9698C40.2354 77.1035 39.7006 77.1926 39.1212 77.1926H38.2744ZM38.7646 73.1815L38.4527 75.811H39.2995C39.5669 75.811 39.7897 75.7664 39.968 75.6773C40.1463 75.5882 40.28 75.499 40.4137 75.3653C40.5028 75.2316 40.5919 75.0534 40.6365 74.8751C40.6811 74.6968 40.7257 74.474 40.7257 74.2511C40.7257 74.0729 40.7257 73.9391 40.6811 73.8054C40.6365 73.6717 40.5919 73.538 40.5028 73.4489C40.4137 73.3598 40.3245 73.2706 40.1908 73.2261C40.0571 73.1815 39.8789 73.1369 39.7006 73.1369H38.7646V73.1815Z" fill="#C4C4C4"/>
<path d="M51.3279 79.9107H49.9463C49.8126 79.9107 49.6789 79.8661 49.5898 79.8216C49.5006 79.7324 49.4561 79.6433 49.4115 79.5542L49.1441 78.128H46.4254L45.846 79.5542C45.8015 79.6433 45.7123 79.7324 45.6232 79.8216C45.4895 79.9107 45.3558 79.9553 45.2221 79.9553H43.7959L47.6288 71.933H49.4561L51.3279 79.9107ZM46.9157 76.8355H48.9212L48.5201 74.5179C48.4756 74.3397 48.431 74.1168 48.431 73.9386C48.3864 73.7603 48.3419 73.582 48.3419 73.4037C48.2973 73.4929 48.2527 73.582 48.2081 73.7157C48.1636 73.8494 48.119 73.9386 48.0744 74.0277C48.0299 74.1168 47.9853 74.2505 47.9407 74.3397C47.8962 74.4288 47.8516 74.5179 47.8516 74.5625L46.9157 76.8355Z" fill="#C4C4C4"/>
<path d="M56.6774 71.8442C56.7219 71.8442 56.7665 71.8442 56.8111 71.8887C56.8556 71.8887 56.9002 71.9333 56.9448 71.9779C56.9893 72.0225 56.9893 72.067 57.0339 72.1116L59.8417 77.0587C59.8417 76.925 59.8417 76.7913 59.8863 76.7021C59.8863 76.5684 59.9308 76.4793 59.9308 76.3901L60.4656 71.8442H62.0701L61.0896 79.8665H60.1537C60.02 79.8665 59.8863 79.8665 59.7971 79.8219C59.708 79.7773 59.6188 79.6882 59.5743 79.5991L56.7665 74.652C56.7665 74.7411 56.7665 74.8748 56.7219 74.964C56.7219 75.0531 56.7219 75.1422 56.6774 75.2314L56.1425 79.911H54.5381L55.5186 71.8887H56.4545C56.5882 71.8442 56.6328 71.8442 56.6774 71.8442Z" fill="#C4C4C4"/>
<path d="M69.1581 76.8361L68.7569 79.9113H66.9742L67.3753 76.8361L65.3252 71.8445H66.9296C67.0634 71.8445 67.1971 71.8891 67.2862 71.9336C67.3753 72.0228 67.4199 72.1119 67.4645 72.201L68.2221 74.6523C68.2667 74.8306 68.3113 74.9643 68.3558 75.1425C68.4004 75.2762 68.445 75.4545 68.445 75.5882C68.5341 75.4545 68.5787 75.3208 68.6678 75.1425C68.757 75.0088 68.8461 74.8306 68.9352 74.6523L70.3168 72.201C70.3614 72.1119 70.4505 72.0228 70.5397 71.9336C70.6288 71.8445 70.7625 71.7999 70.9408 71.7999H72.4115L69.1581 76.8361Z" fill="#C4C4C4"/>
<path d="M78.8291 63.3313L53.7818 18.5847L38.0938 46.6182L47.4531 63.3313H78.8291Z" fill="#C4C4C4"/>
<path d="M44.1511 63.3313L36.4408 49.5597L28.7305 63.3313H44.1511Z" fill="#C4C4C4"/>
<path d="M35.6386 0L0.429688 63.3315H25.0759L47.984 22.0167L35.6386 0Z" fill="#C4C4C4"/>
</g>
<defs>
<clipPath id="clip0">
<rect width="78.3955" height="80" fill="white" transform="translate(0.429688)"/>
</clipPath>
</defs>
</svg>
