<svg width="19" height="19" viewBox="0 0 19 19" fill="none" xmlns="http://www.w3.org/2000/svg">
<path d="M14.6041 18.1552C12.9505 18.1538 11.3227 17.7451 9.86455 16.9653L9.41459 16.7154C6.30565 15.0438 3.75685 12.495 2.08532 9.38608L1.83535 8.93613C1.03525 7.46965 0.612596 5.82714 0.605469 4.1566V3.48667C0.60526 3.22278 0.65728 2.96147 0.758531 2.71778C0.859782 2.47409 1.00826 2.25285 1.19541 2.06681L2.88524 0.37698C2.96621 0.29538 3.06486 0.233487 3.17356 0.196083C3.28226 0.158678 3.3981 0.146764 3.51214 0.16126C3.62618 0.175756 3.73535 0.216275 3.83124 0.279686C3.92712 0.343097 4.00715 0.427702 4.06512 0.526965L6.3149 4.38658C6.42554 4.57762 6.46984 4.7999 6.4409 5.01876C6.41196 5.23762 6.3114 5.44074 6.15492 5.59646L4.2651 7.48627C4.18868 7.56186 4.13865 7.66008 4.12244 7.76634C4.10622 7.87261 4.1247 7.98127 4.17511 8.07621L4.52508 8.73615C5.782 11.0644 7.69403 12.9729 10.0245 14.2256L10.6845 14.5856C10.7794 14.636 10.8881 14.6545 10.9943 14.6382C11.1006 14.622 11.1988 14.572 11.2744 14.4956L13.1642 12.6058C13.3199 12.4493 13.5231 12.3487 13.7419 12.3198C13.9608 12.2908 14.1831 12.3351 14.3741 12.4458L18.2337 14.6956C18.333 14.7535 18.4176 14.8336 18.481 14.9294C18.5444 15.0253 18.5849 15.1345 18.5994 15.2485C18.6139 15.3626 18.602 15.4784 18.5646 15.5871C18.5272 15.6958 18.4653 15.7945 18.3837 15.8754L16.6939 17.5653C16.5078 17.7524 16.2866 17.9009 16.0429 18.0021C15.7992 18.1034 15.5379 18.1554 15.274 18.1552H14.6041Z" fill="url(#paint0_linear)"/>
<defs>
<linearGradient id="paint0_linear" x1="4.28198" y1="17.7506" x2="19.9614" y2="4.68733" gradientUnits="userSpaceOnUse">
<stop stop-color="#22917B"/>
<stop offset="1" stop-color="#22B573"/>
</linearGradient>
</defs>
</svg>
