<svg width="19" height="15" viewBox="0 0 19 15" fill="none" xmlns="http://www.w3.org/2000/svg">
<path fill-rule="evenodd" clip-rule="evenodd" d="M10.197 11.6576C9.52485 12.3203 8.85998 12.9712 8.20085 13.6281C7.97039 13.8578 7.71115 13.9846 7.3806 13.9666C7.15547 13.9543 7.0291 13.8531 6.96011 13.636C6.45569 12.0485 5.94303 10.4637 5.44089 8.87547C5.39196 8.72084 5.31828 8.64653 5.16482 8.599C3.97543 8.23052 2.78841 7.85406 1.60292 7.47298C1.42739 7.41655 1.24967 7.34401 1.09738 7.24163C0.832319 7.06349 0.794491 6.78026 1.03654 6.57517C1.26019 6.38565 1.52534 6.22698 1.79698 6.11811C3.29987 5.51593 4.81041 4.93326 6.31821 4.34364C9.94529 2.92531 13.5725 1.50712 17.1993 0.0881067C17.8946 -0.183929 18.4348 0.193346 18.3697 0.952976C18.3268 1.45373 18.1981 1.94794 18.0949 2.4423C17.2911 6.29012 16.4843 10.1373 15.6784 13.9846C15.6769 13.992 15.6764 13.9996 15.6747 14.007C15.4777 14.8872 14.8465 15.1278 14.1268 14.5913C12.8776 13.6598 11.6314 12.7242 10.3837 11.7906C10.3247 11.7464 10.2637 11.705 10.197 11.6576ZM7.43663 12.8693C7.45606 12.779 7.46953 12.7373 7.47347 12.6947C7.55275 11.8294 7.63561 10.9645 7.70581 10.0984C7.72143 9.90624 7.77801 9.76431 7.92476 9.63085C9.818 7.90905 11.7054 6.18062 13.5942 4.45392C14.1316 3.96275 14.6711 3.47402 15.2032 2.97712C15.259 2.92496 15.2712 2.82471 15.3036 2.74678C15.2214 2.72319 15.1293 2.6634 15.0591 2.68322C14.8969 2.72904 14.7335 2.79441 14.5912 2.88504C11.7828 4.67475 8.97806 6.47021 6.16957 8.25974C6.02668 8.35078 5.9859 8.42572 6.0432 8.60014C6.4879 9.9536 6.91971 11.3114 7.35618 12.6676C7.37328 12.7208 7.39741 12.7716 7.43663 12.8693Z" fill="white"/>
</svg>
