<svg width="19" height="19" viewBox="0 0 19 19" fill="none" xmlns="http://www.w3.org/2000/svg">
<path fill-rule="evenodd" clip-rule="evenodd" d="M15.503 12.4913L15.503 12.4913C15.4037 12.42 15.3044 12.3488 15.2054 12.2773C14.0635 11.4517 13.019 11.3875 12.1668 12.7158C11.6883 13.4616 11.0184 13.4942 10.318 13.1671C8.38706 12.2658 6.89599 10.8771 6.02258 8.85674C5.63621 7.96289 5.6413 7.16151 6.54528 6.52932C7.02389 6.19498 7.50606 5.79937 7.46751 5.06883C7.41717 4.11627 5.17041 0.932938 4.28317 0.596951C3.91604 0.457898 3.55042 0.466948 3.17691 0.59617C1.09647 1.31638 0.234752 3.07767 1.06001 5.16314C3.52199 11.385 7.85468 15.7164 13.8189 18.3601C14.0668 18.4699 14.3347 18.5316 14.5359 18.5779L14.5359 18.578C14.6106 18.5952 14.6761 18.6103 14.7279 18.6249C16.0858 18.6389 17.6765 17.2922 18.1358 15.9557C18.5246 14.8256 17.8495 14.2945 17.1784 13.7665C17.0859 13.6937 16.9935 13.6211 16.904 13.5469C16.4538 13.1738 15.978 12.8323 15.503 12.4913ZM10.2163 1.23484C14.5766 1.92505 16.5874 4.05931 17.1427 8.58002C17.1539 8.67096 17.1555 8.77191 17.1571 8.8743C17.163 9.24203 17.1691 9.62844 17.6218 9.6375C18.1273 9.64744 18.1085 9.21664 18.0917 8.83085C18.0884 8.75505 18.0852 8.68099 18.086 8.61236C18.1371 4.35469 14.5307 0.407647 10.3424 0.262117C10.2681 0.27312 10.1752 0.266555 10.0759 0.259544C9.75289 0.23673 9.36298 0.209191 9.33178 0.766878C9.30999 1.16101 9.65961 1.18718 9.98526 1.21157C10.0657 1.21759 10.1448 1.22351 10.2163 1.23484ZM10.8728 2.44383L10.8727 2.44383C10.4935 2.3793 10.0816 2.3092 9.99834 2.81799C9.91546 3.32723 10.3045 3.38214 10.6661 3.43316C10.7509 3.44513 10.8342 3.45689 10.9096 3.47425C13.6026 4.09381 14.5402 5.10278 14.9836 7.8526C14.9965 7.93223 15.0017 8.02066 15.007 8.11045C15.0285 8.47268 15.0512 8.85693 15.5816 8.77406C15.9523 8.71594 15.9416 8.3962 15.932 8.10862C15.9289 8.01572 15.9259 7.92617 15.9359 7.84989C15.9576 5.20986 13.76 2.80696 11.0694 2.47438C11.0062 2.46654 10.94 2.45528 10.8728 2.44383ZM10.659 4.97943C10.7619 4.67147 11.0367 4.64028 11.3166 4.63316C12.5103 4.60265 13.9092 6.07523 13.8894 7.34926C13.9017 7.69751 13.8655 8.06423 13.4653 8.11338C13.1764 8.14848 12.9867 7.89908 12.9569 7.5913C12.8465 6.45729 12.2652 5.78674 11.1604 5.60418C10.8296 5.54947 10.5045 5.43973 10.659 4.97943Z" fill="white"/>
</svg>
