<svg width="81" height="80" viewBox="0 0 81 80" fill="none" xmlns="http://www.w3.org/2000/svg">
<g clip-path="url(#clip0)">
<path d="M0.421875 79.9996V73.0468H2.9656C3.43194 73.0468 3.8559 73.0892 4.19506 73.174C4.53422 73.2588 4.78859 73.386 5.00057 73.5556C5.21255 73.7251 5.38213 73.8947 5.46692 74.1491C5.55171 74.3611 5.59411 74.6578 5.59411 74.9122C5.59411 75.0818 5.55171 75.209 5.50932 75.3786C5.46692 75.5057 5.38213 75.6753 5.29734 75.8025C5.21255 75.9297 5.08536 76.0569 4.91578 76.1417C4.7462 76.2265 4.57662 76.3536 4.36464 76.396C4.83099 76.5232 5.17015 76.6928 5.38213 76.9472C5.59411 77.2016 5.72129 77.4983 5.72129 77.9223C5.72129 78.219 5.6789 78.4734 5.55171 78.7278C5.42452 78.9822 5.25494 79.1941 5.04297 79.4061C4.83099 79.5757 4.53422 79.7453 4.23746 79.8301C3.89829 79.9573 3.55913 79.9996 3.13518 79.9996H0.421875ZM2.0329 75.9721H2.8808C3.05039 75.9721 3.21997 75.9721 3.34715 75.9297C3.47434 75.8873 3.60153 75.8449 3.72871 75.8025C3.8135 75.7601 3.89829 75.6329 3.94069 75.5481C3.98308 75.421 4.02548 75.2938 4.02548 75.1242C4.02548 74.9546 4.02548 74.8274 3.98308 74.7002C3.94069 74.573 3.89829 74.4883 3.8135 74.4459C3.72871 74.3611 3.60153 74.3187 3.47434 74.3187C3.34715 74.2763 3.17757 74.2763 3.00799 74.2763H2.0329V75.9721ZM2.0329 77.032V78.7702H3.17757C3.38955 78.7702 3.55913 78.7278 3.68632 78.6854C3.8135 78.643 3.94069 78.5582 3.98308 78.4734C4.06787 78.3886 4.11027 78.3038 4.15266 78.1766C4.19506 78.0495 4.19506 77.9647 4.19506 77.8375C4.19506 77.7103 4.19506 77.5831 4.15266 77.4983C4.11027 77.4135 4.06787 77.3287 3.98308 77.244C3.89829 77.1592 3.8135 77.1168 3.64392 77.0744C3.51673 77.032 3.34715 77.032 3.13518 77.032H2.0329Z" fill="#CE5959"/>
<path d="M10.1696 77.4137V79.9998H8.55859V73.047H10.8055C11.3143 73.047 11.7382 73.0894 12.0774 73.2166C12.4166 73.3014 12.7133 73.4709 12.9253 73.6405C13.1373 73.8101 13.3069 74.0221 13.4341 74.2765C13.5188 74.5308 13.6036 74.7852 13.6036 75.082C13.6036 75.294 13.5612 75.5059 13.5188 75.7179C13.4765 75.9299 13.3493 76.0995 13.2645 76.269C13.1373 76.4386 13.0101 76.6082 12.8405 76.7354C12.6709 76.8626 12.459 76.9898 12.247 77.0746C12.3742 77.117 12.459 77.2017 12.5438 77.2865C12.6285 77.3713 12.7133 77.4561 12.7981 77.5833L14.282 79.9998H12.8405C12.5862 79.9998 12.3742 79.915 12.247 79.7031L11.1023 77.7105C11.0599 77.6257 10.9751 77.5409 10.9327 77.5409C10.8479 77.4985 10.7632 77.4985 10.636 77.4985H10.1696V77.4137ZM10.1696 76.3114H10.8055C11.0175 76.3114 11.2295 76.269 11.3567 76.2266C11.5263 76.1843 11.6535 76.0995 11.7382 76.0147C11.823 75.9299 11.9078 75.8027 11.9502 75.6755C11.9926 75.5483 12.035 75.4211 12.035 75.2516C12.035 74.9548 11.9502 74.7004 11.7382 74.5308C11.5263 74.3613 11.2295 74.2765 10.8055 74.2765H10.1696V76.3114Z" fill="#CE5959"/>
<path d="M23.2687 79.9994H22.0392C21.912 79.9994 21.7848 79.957 21.7 79.9147C21.6152 79.8299 21.5305 79.7875 21.5305 79.6603L21.1065 78.4308H18.478L18.054 79.6603C18.0116 79.7451 17.9693 79.8299 17.8845 79.9147C17.7997 79.9994 17.6725 80.0418 17.5453 80.0418H16.2734L18.9443 73.089H20.5978L23.2687 79.9994ZM18.8172 77.3285H20.7249L20.089 75.4207C20.0466 75.2936 20.0042 75.1664 19.9618 74.9968C19.9194 74.8272 19.8346 74.6576 19.7923 74.4456C19.7499 74.6576 19.7075 74.8272 19.6227 74.9968C19.5803 75.1664 19.5379 75.2936 19.4531 75.4207L18.8172 77.3285Z" fill="#CE5959"/>
<path d="M26.7485 73.0468C26.7909 73.0468 26.8333 73.0468 26.8757 73.0892C26.9181 73.0892 26.9605 73.1316 27.0029 73.174C27.0453 73.2164 27.0877 73.2588 27.1301 73.3012L30.4369 77.4559C30.4369 77.3287 30.3945 77.2015 30.3945 77.0744C30.3945 76.9472 30.3945 76.82 30.3945 76.7352V73.0468H31.7936V79.9996H30.9457C30.8185 79.9996 30.7337 79.9996 30.6489 79.9572C30.5641 79.9148 30.4793 79.83 30.3945 79.7453L27.1301 75.6329C27.1301 75.7601 27.1301 75.8873 27.1725 75.9721C27.1725 76.0993 27.1725 76.1841 27.1725 76.3112V80.042H25.7734V73.0892H26.6213C26.6637 73.0468 26.7061 73.0468 26.7485 73.0468Z" fill="#CE5959"/>
<path d="M41.1216 76.5232C41.1216 77.032 41.0368 77.4983 40.8672 77.9223C40.6976 78.3462 40.4433 78.7278 40.1465 79.0246C39.8497 79.3213 39.4682 79.5757 39.0018 79.7453C38.5779 79.9149 38.0691 79.9996 37.518 79.9996H34.8047V73.0468H37.518C38.0691 73.0468 38.5355 73.1316 39.0018 73.3012C39.4258 73.4708 39.8073 73.7251 40.1465 74.0219C40.4433 74.3187 40.6976 74.7002 40.8672 75.1242C41.0368 75.5481 41.1216 76.0145 41.1216 76.5232ZM39.4682 76.5232C39.4682 76.1841 39.4258 75.8873 39.341 75.5905C39.2562 75.2938 39.129 75.0818 38.9594 74.8698C38.7898 74.6578 38.5779 74.5307 38.3659 74.4459C38.1115 74.3611 37.8571 74.2763 37.5604 74.2763H36.4581V78.7278H37.518C37.8148 78.7278 38.1115 78.6854 38.3235 78.5582C38.5779 78.4734 38.7475 78.3038 38.917 78.1343C39.0866 77.9223 39.2138 77.7103 39.2986 77.4135C39.4258 77.1592 39.4682 76.8624 39.4682 76.5232Z" fill="#CE5959"/>
<path d="M48.5845 73.0468C48.6269 73.0468 48.6693 73.0468 48.7117 73.0892C48.754 73.1316 48.7964 73.1316 48.8388 73.174C48.8812 73.2164 48.9236 73.2588 48.966 73.3012L52.2729 77.4559C52.2729 77.3288 52.2305 77.2016 52.2305 77.0744C52.2305 76.9472 52.2305 76.82 52.2305 76.7352V73.0468H53.6295V79.9996H52.7816C52.6544 79.9996 52.5696 79.9997 52.4848 79.9573C52.4 79.9149 52.3153 79.8301 52.2305 79.7453L48.966 75.6329C48.966 75.7601 48.966 75.8873 49.0084 75.9721C49.0084 76.0993 49.0084 76.1841 49.0084 76.3113V80.042H47.6094V73.0892H48.4573C48.4573 73.0468 48.4997 73.0468 48.5845 73.0468Z" fill="#CE5959"/>
<path d="M63.0812 79.9996H61.8517C61.7245 79.9996 61.5973 79.9572 61.5125 79.9148C61.4278 79.83 61.343 79.7876 61.343 79.6604L60.919 78.4309H58.2905L57.8665 79.6604C57.8241 79.7452 57.7818 79.83 57.697 79.9148C57.6122 79.9996 57.485 80.042 57.3578 80.042H56.0859L58.7568 73.0891H60.4103L63.0812 79.9996ZM58.6297 77.3287H60.5375L59.9015 75.4209C59.8591 75.2937 59.8167 75.1665 59.7743 74.9969C59.7319 74.8273 59.6471 74.6577 59.6048 74.4458C59.5624 74.6577 59.52 74.8273 59.4352 74.9969C59.3928 75.1665 59.3504 75.2937 59.2656 75.4209L58.6297 77.3287Z" fill="#CE5959"/>
<path d="M69.2743 77.2017C69.3167 77.3288 69.4015 77.456 69.4439 77.5832C69.4863 77.456 69.5711 77.2864 69.6135 77.1593C69.6559 77.0321 69.7407 76.9049 69.7831 76.7777L71.5637 73.2589C71.6061 73.2165 71.6485 73.1317 71.6485 73.1317C71.6909 73.0893 71.7333 73.0893 71.7757 73.0469C71.8181 73.0469 71.8605 73.0045 71.9029 73.0045C71.9452 73.0045 72.03 73.0045 72.0724 73.0045H73.3019V79.915H71.9029V75.9298C71.9029 75.7178 71.9028 75.5058 71.9452 75.2939L70.1222 78.8551C70.0798 78.9823 69.9951 79.0671 69.9103 79.1095C69.8255 79.1518 69.6983 79.1942 69.5711 79.1942H69.3591C69.2319 79.1942 69.1048 79.1518 69.02 79.1095C68.9352 79.0671 68.8504 78.9823 68.808 78.8551L66.9426 75.2939C66.9426 75.4211 66.985 75.5058 66.985 75.633C66.985 75.7602 66.985 75.845 66.985 75.9298V79.915H65.5859V73.0045H66.8154C66.9002 73.0045 66.9426 73.0045 66.985 73.0045C67.0274 73.0045 67.0698 73.0045 67.1122 73.0469C67.1546 73.0469 67.197 73.0893 67.2394 73.1317C67.2818 73.1741 67.3242 73.2165 67.3242 73.2589L69.1048 76.7777C69.1895 76.9473 69.2319 77.0745 69.2743 77.2017Z" fill="#CE5959"/>
<path d="M80.8923 73.0469V74.2764H78.0095V75.8874H80.1716V77.0745H78.0095V78.7279H80.85V79.9574H76.3984V73.0045H80.8923V73.0469Z" fill="#CE5959"/>
<path d="M66.9378 19.7142L40.4832 65.5435L14.0285 19.7142H66.9378ZM68.2521 17.1281H12.7142C11.3152 17.1281 10.4249 18.6543 11.1032 19.8838L38.8721 68.0025C39.2113 68.596 39.8472 68.9352 40.4832 68.9352C41.1191 68.9352 41.7126 68.6384 42.0942 68.0025L69.8631 19.8838C70.5838 18.6543 69.6935 17.1281 68.2521 17.1281Z" fill="#CE5959"/>
<path d="M40.4838 0L9.53516 53.6301H71.4324L40.4838 0ZM32.9798 20.6889L34.718 23.7414L26.2389 38.4102L24.5007 35.3577L32.9798 20.6889ZM27.4684 40.5723L35.9475 25.9036L49.8955 50.0689H32.9374L27.4684 40.5723Z" fill="#CE5959"/>
</g>
<defs>
<clipPath id="clip0">
<rect width="80.4664" height="80" fill="white" transform="translate(0.421875)"/>
</clipPath>
</defs>
</svg>
