<svg width="26" height="26" viewBox="0 0 26 26" fill="none" xmlns="http://www.w3.org/2000/svg">
<path fill-rule="evenodd" clip-rule="evenodd" d="M18.8332 6.24434C18.8332 7.12142 19.5458 7.83249 20.4249 7.83249C21.3039 7.83249 22.0165 7.12142 22.0165 6.24434C22.0165 5.3672 21.3039 4.65614 20.4249 4.65614C19.5458 4.65614 18.8332 5.3672 18.8332 6.24434ZM8.92295 13.3092C8.92295 10.8727 10.9025 8.89753 13.3444 8.89753C15.7862 8.89753 17.7658 10.8727 17.7658 13.3092C17.7658 15.7456 15.7862 17.7207 13.3444 17.7207C10.9025 17.7207 8.92295 15.7456 8.92295 13.3092ZM13.3445 20.1054C9.58273 20.1054 6.53322 17.0626 6.53322 13.3092C6.53322 9.55571 9.58273 6.51296 13.3445 6.51296C17.1063 6.51296 20.1559 9.55571 20.1559 13.3092C20.1559 17.0626 17.1063 20.1054 13.3445 20.1054ZM24.1121 2.60498C23.5784 2.07123 23.0702 1.74067 22.3583 1.46399C21.8208 1.25507 21.0131 1.00662 19.5259 0.938757C17.9175 0.865385 17.4351 0.849854 13.3623 0.849854C9.28953 0.849854 8.8071 0.865385 7.19866 0.938757C5.71152 1.00662 4.90388 1.25507 4.3664 1.46399C3.65439 1.74067 3.1463 2.07123 2.61255 2.60498C2.0788 3.13873 1.74824 3.64688 1.47151 4.35883C1.26264 4.89631 1.01419 5.70401 0.946325 7.19115C0.872953 8.79953 0.857422 9.28196 0.857422 13.3548C0.857422 17.4276 0.872953 17.91 0.946325 19.5184C1.01419 21.0055 1.26264 21.8132 1.47151 22.3507C1.74824 23.0627 2.0788 23.5708 2.61255 24.1046C3.1463 24.6383 3.65439 24.9689 4.3664 25.2456C4.90388 25.4544 5.71152 25.7029 7.19872 25.7708C8.80688 25.8442 9.28925 25.8597 13.3623 25.8597C17.4354 25.8597 17.9178 25.8442 19.5259 25.7708C21.0131 25.7029 21.8208 25.4544 22.3583 25.2456C23.0702 24.9689 23.5784 24.6383 24.1121 24.1045C24.6458 23.5708 24.9765 23.0627 25.2531 22.3507C25.462 21.8132 25.7105 21.0055 25.7784 19.5184C25.8517 17.91 25.8673 17.4276 25.8673 13.3548C25.8673 9.28196 25.8517 8.79953 25.7784 7.19115C25.7105 5.70401 25.462 4.89631 25.2531 4.35883C24.9765 3.64688 24.6458 3.13873 24.1121 2.60498Z" fill="white"/>
</svg>
