<svg width="35" height="19" viewBox="0 0 35 19" fill="none" xmlns="http://www.w3.org/2000/svg">
<path id="vk_red" fill-rule="evenodd" clip-rule="evenodd" d="M17.1729 18.8366H19.1663C19.1663 18.8366 19.768 18.774 20.0753 18.4598C20.3591 18.1703 20.3496 17.628 20.3496 17.628C20.3496 17.628 20.3108 15.0891 21.5518 14.7146C22.7752 14.3457 24.347 17.1686 26.0119 18.2541C27.2718 19.0758 28.2291 18.8958 28.2291 18.8958L32.6821 18.8366C32.6821 18.8366 35.0111 18.7002 33.9067 16.9617C33.816 16.8198 33.2626 15.675 30.5957 13.3239C27.8028 10.8632 28.1772 11.2612 31.5412 7.00401C33.5887 4.41256 34.4082 2.82952 34.1516 2.15204C33.9078 1.50585 32.4019 1.6769 32.4019 1.6769L27.3872 1.70597C27.3872 1.70597 27.0151 1.65789 26.7396 1.81441C26.4711 1.96757 26.2981 2.32532 26.2981 2.32532C26.2981 2.32532 25.5033 4.33095 24.446 6.03697C22.2135 9.63682 21.3199 9.82688 20.9548 9.60328C20.1059 9.08231 20.3179 7.51157 20.3179 6.39472C20.3179 2.90554 20.876 1.45107 19.2334 1.07432C18.6883 0.950221 18.2868 0.867492 16.8927 0.854076C15.1042 0.836189 13.59 0.858548 12.7328 1.25766C12.1618 1.52262 11.7214 2.11402 11.9898 2.14756C12.3207 2.19005 13.0719 2.33985 13.4699 2.85412C13.9832 3.51819 13.9656 5.00844 13.9656 5.00844C13.9656 5.00844 14.2611 9.11473 13.2756 9.62564C12.5998 9.97445 11.6731 9.26118 9.68207 5.99449C8.66241 4.32201 7.89236 2.47289 7.89236 2.47289C7.89236 2.47289 7.74401 2.12744 7.47908 1.94186C7.15764 1.71826 6.70904 1.64671 6.70904 1.64671L1.94395 1.6769C1.94395 1.6769 1.22925 1.69591 0.966679 1.99105C0.732369 2.25377 0.94784 2.7971 0.94784 2.7971C0.94784 2.7971 4.67796 11.0835 8.90143 15.2591C12.7752 19.0881 17.1729 18.8366 17.1729 18.8366Z" fill="white"/>
</svg>
