<svg width="29" height="21" viewBox="0 0 29 21" fill="none" xmlns="http://www.w3.org/2000/svg">
<path id="Youtube_red" fill-rule="evenodd" clip-rule="evenodd" d="M11.882 14.163L11.8812 6.39233L19.3893 10.2911L11.882 14.163ZM28.3683 5.04588C28.3683 5.04588 28.0965 3.14017 27.2637 2.30096C26.2068 1.19902 25.0223 1.19383 24.4796 1.12988C20.5909 0.849854 14.7579 0.849854 14.7579 0.849854H14.7457C14.7457 0.849854 8.91268 0.849854 5.02399 1.12988C4.48038 1.19383 3.29675 1.19902 2.23904 2.30096C1.40625 3.14017 1.13531 5.04588 1.13531 5.04588C1.13531 5.04588 0.857422 7.28434 0.857422 9.52193V11.6204C0.857422 13.8588 1.13531 16.0964 1.13531 16.0964C1.13531 16.0964 1.40625 18.0021 2.23904 18.8413C3.29675 19.9433 4.68532 19.9087 5.30362 20.0237C7.52672 20.2363 14.7518 20.302 14.7518 20.302C14.7518 20.302 20.5909 20.2933 24.4796 20.0133C25.0223 19.9485 26.2068 19.9433 27.2637 18.8413C28.0965 18.0021 28.3683 16.0964 28.3683 16.0964C28.3683 16.0964 28.6461 13.8588 28.6461 11.6204V9.52193C28.6461 7.28434 28.3683 5.04588 28.3683 5.04588Z" fill="white"/>
</svg>
